<?xml version="1.0" encoding="UTF-8" standalone="no"?>
<svg
   xmlns:dc="http://purl.org/dc/elements/1.1/"
   xmlns:cc="http://creativecommons.org/ns#"
   xmlns:rdf="http://www.w3.org/1999/02/22-rdf-syntax-ns#"
   xmlns:svg="http://www.w3.org/2000/svg"
   xmlns="http://www.w3.org/2000/svg"
   xmlns:sodipodi="http://sodipodi.sourceforge.net/DTD/sodipodi-0.dtd"
   xmlns:inkscape="http://www.inkscape.org/namespaces/inkscape"
   inkscape:version="1.0beta2 (2b71d25, 2019-12-03)"
   sodipodi:docname="kds lower thirds.svg"
   id="svg402"
   version="1.1"
   viewBox="0 0 1809 213"
   height="213"
   width="1809">
  <metadata
     id="metadata408">
    <rdf:RDF>
      <cc:Work
         rdf:about="">
        <dc:format>image/svg+xml</dc:format>
        <dc:type
           rdf:resource="http://purl.org/dc/dcmitype/StillImage" />
      </cc:Work>
    </rdf:RDF>
  </metadata>
  <defs
     id="defs406" />
  <sodipodi:namedview
     inkscape:current-layer="kds_lower_thirds"
     inkscape:window-maximized="1"
     inkscape:window-y="23"
     inkscape:window-x="0"
     inkscape:cy="106.5"
     inkscape:cx="904.5"
     inkscape:zoom="0.58153676"
     showgrid="false"
     id="namedview404"
     inkscape:window-height="1005"
     inkscape:window-width="1680"
     inkscape:pageshadow="2"
     inkscape:pageopacity="0"
     guidetolerance="10"
     gridtolerance="10"
     objecttolerance="10"
     borderopacity="1"
     inkscape:document-rotation="0"
     bordercolor="#666666"
     pagecolor="#ffffff" />
  <g
     transform="translate(-6342 499)"
     data-name="kds lower thirds"
     id="kds_lower_thirds">
    <rect
       fill="#f0f"
       transform="translate(6342 -483)"
       height="197"
       width="1794"
       data-name="Rectangle 51"
       id="Rectangle_51" />
    <rect
       fill="#fff"
       transform="translate(6357 -499)"
       height="197"
       width="1794"
       data-name="Rectangle 50"
       id="Rectangle_50" />
    <text
       font-family="ArialMT, Arial"
       font-size="32"
       fill="#1d2e46"
       transform="translate(6497,-366)"
       data-name="{{object.title}}"
       id="_object.title_"><tspan
         id="tspan12"
         y="0"
         x="0">{{title}}</tspan></text>
    <text
       font-weight="700"
       font-family="Arial-BoldMT, Arial"
       font-size="36"
       fill="#1d2e46"
       transform="translate(6497,-415)"
       data-name="{{object.name}} "
       id="_object.name_"><tspan
         id="tspan15"
         y="0"
         x="0">{{name}}</tspan></text>
    <g
       transform="translate(5743 -1688)"
       data-name="Inverse logo"
       id="Inverse_logo">
      <g
         transform="translate(2133 1220)"
         data-name="Group 8"
         id="Group_8">
        <path
           fill="#fff"
           d="M67.5,0A67.5,67.5,0,1,0,135,67.5,67.5,67.5,0,0,0,67.5,0Z"
           data-name="Path 40"
           id="Path_40" />
        <g
           data-name="Group 7"
           id="Group_7">
          <path
             stroke-width="2"
             stroke="#333"
             fill="rgba(0,0,0,0)"
             d="M67.5,0A67.5,67.5,0,1,0,135,67.5,67.5,67.5,0,0,0,67.5,0Z"
             data-name="Path 41"
             id="Path_41" />
        </g>
      </g>
      <g
         transform="translate(2158.135 1256.703)"
         data-name="Group 10"
         id="Group_10">
        <path
           fill="#f1f0ed"
           transform="translate(-55.86 -81.57)"
           d="M67.924,85.024c-.639,0-.712.081-1.446.815-.374.374-6.458,6.5-6.458,6.5V82.106a.483.483,0,0,0-.531-.536H56.4a.484.484,0,0,0-.536.536v1.378a.481.481,0,0,0,.536.531h1.135V96.629H56.4a.481.481,0,0,0-.531.536v1.378a.486.486,0,0,0,.531.54h4.733a.482.482,0,0,0,.536-.536V97.17a.488.488,0,0,0-.536-.54H60.021V95.611l2.423-2.459q3.844,4.695,4.269,5.215c.558.716.558.716,1.383.716h1.842a.482.482,0,0,0,.536-.536V97.17a.481.481,0,0,0-.536-.531H68.42L64.178,91.4l3.877-3.927h1.891a.467.467,0,0,0,.531-.513v-1.4a.485.485,0,0,0-.536-.531Z"
           data-name="Path 42"
           id="Path_42" />
        <g
           data-name="Group 9"
           id="Group_9">
          <path
             stroke-width="1"
             stroke="rgba(0,0,0,0)"
             fill="#333"
             transform="translate(-55.86 -81.57)"
             d="M67.924,85.024c-.639,0-.712.081-1.446.815-.374.374-6.458,6.5-6.458,6.5V82.106a.483.483,0,0,0-.531-.536H56.4a.484.484,0,0,0-.536.536v1.378a.481.481,0,0,0,.536.531h1.135V96.629H56.4a.481.481,0,0,0-.531.536v1.378a.486.486,0,0,0,.531.54h4.733a.482.482,0,0,0,.536-.536V97.17a.488.488,0,0,0-.536-.54H60.021V95.611l2.423-2.459q3.844,4.695,4.269,5.215c.558.716.558.716,1.383.716h1.842a.482.482,0,0,0,.536-.536V97.17a.481.481,0,0,0-.536-.531H68.42L64.178,91.4l3.877-3.927h1.891a.467.467,0,0,0,.531-.513v-1.4a.485.485,0,0,0-.536-.531Z"
             data-name="Path 43"
             id="Path_43" />
        </g>
      </g>
      <g
         transform="translate(2173.87 1259.857)"
         data-name="Group 12"
         id="Group_12">
        <path
           fill="#f1f0ed"
           transform="translate(-90.83 -88.58)"
           d="M104.709,100.491V94.475c0-3.58-2.256-5.895-5.751-5.895a5.7,5.7,0,0,0-4.017,1.473v-.635a.481.481,0,0,0-.531-.536H91.366a.478.478,0,0,0-.536.527v1.378a.486.486,0,0,0,.536.54h1.121V100.5H91.366a.482.482,0,0,0-.536.536v1.378a.481.481,0,0,0,.536.531h4.706a.48.48,0,0,0,.531-.531v-1.378a.481.481,0,0,0-.531-.536H94.951V94.912a3.772,3.772,0,0,1,3.837-3.963c2.162,0,3.454,1.405,3.454,3.76V100.5H101.12a.481.481,0,0,0-.531.536v1.378a.48.48,0,0,0,.531.531h4.71a.48.48,0,0,0,.531-.531v-1.378a.482.482,0,0,0-.531-.54Z"
           data-name="Path 44"
           id="Path_44" />
        <g
           data-name="Group 11"
           id="Group_11">
          <path
             stroke-width="1"
             stroke="rgba(0,0,0,0)"
             fill="#333"
             transform="translate(-90.83 -88.58)"
             d="M104.709,100.491V94.475c0-3.58-2.256-5.895-5.751-5.895a5.7,5.7,0,0,0-4.017,1.473v-.635a.481.481,0,0,0-.531-.536H91.366a.478.478,0,0,0-.536.527v1.378a.486.486,0,0,0,.536.54h1.121V100.5H91.366a.482.482,0,0,0-.536.536v1.378a.481.481,0,0,0,.536.531h4.706a.48.48,0,0,0,.531-.531v-1.378a.481.481,0,0,0-.531-.536H94.951V94.912a3.772,3.772,0,0,1,3.837-3.963c2.162,0,3.454,1.405,3.454,3.76V100.5H101.12a.481.481,0,0,0-.531.536v1.378a.48.48,0,0,0,.531.531h4.71a.48.48,0,0,0,.531-.531v-1.378a.482.482,0,0,0-.531-.54Z"
             data-name="Path 45"
             id="Path_45" />
        </g>
      </g>
      <g
         transform="translate(2189.308 1259.876)"
         data-name="Group 14"
         id="Group_14">
        <path
           fill="#f1f0ed"
           transform="translate(-125.14 -88.62)"
           d="M133.512,88.715l.563.113.549.158.527.2.5.239.482.275.455.311.432.342.4.378.369.41.342.432.306.464.27.491.234.513.194.531.153.558.113.572.068.59.023.6-.023.612-.072.594-.113.576-.158.558-.194.54-.239.518-.27.491-.311.468-.342.441-.374.414-.405.378-.432.347-.459.315-.486.279-.509.239-.531.2-.549.162-.567.113-.585.072-.6.022-.594-.022-.581-.072-.558-.113-.545-.158-.527-.2-.5-.234-.477-.275-.455-.311-.428-.347-.4-.374-.369-.41-.338-.437-.306-.459-.27-.491-.23-.513-.194-.531-.158-.554-.113-.572-.068-.59-.023-.6.023-.612.072-.594.113-.581.153-.558.2-.54.234-.518.27-.5.306-.468.342-.437.374-.414.4-.378.432-.351.459-.311.482-.279.509-.239.527-.2.549-.158.567-.117.581-.068.6-.027.594.027Zm-2.387,2.45-.531.171-.5.239-.464.293-.423.351-.374.405-.329.45-.279.491L128,94.1l-.162.567-.1.6-.032.626.036.63.1.6.167.572.225.54.284.5.338.459.383.41.428.36.468.3.5.248.536.176.563.113.59.036.594-.036.567-.108.536-.171.5-.239.468-.3.423-.347.378-.405.329-.45.279-.491.221-.531.162-.567.1-.6.036-.626-.036-.63-.1-.6-.171-.572-.23-.54-.284-.5-.338-.459-.383-.41-.432-.36-.468-.3-.509-.248-.536-.176-.567-.113-.59-.036-.59.036Z"
           data-name="Path 46"
           id="Path_46" />
        <g
           data-name="Group 13"
           id="Group_13">
          <path
             stroke-width="1"
             stroke="rgba(0,0,0,0)"
             fill="#333"
             transform="translate(-125.14 -88.62)"
             d="M133.512,88.715l.563.113.549.158.527.2.5.239.482.275.455.311.432.342.4.378.369.41.342.432.306.464.27.491.234.513.194.531.153.558.113.572.068.59.023.6-.023.612-.072.594-.113.576-.158.558-.194.54-.239.518-.27.491-.311.468-.342.441-.374.414-.405.378-.432.347-.459.315-.486.279-.509.239-.531.2-.549.162-.567.113-.585.072-.6.022-.594-.022-.581-.072-.558-.113-.545-.158-.527-.2-.5-.234-.477-.275-.455-.311-.428-.347-.4-.374-.369-.41-.338-.437-.306-.459-.27-.491-.23-.513-.194-.531-.158-.554-.113-.572-.068-.59-.023-.6.023-.612.072-.594.113-.581.153-.558.2-.54.234-.518.27-.5.306-.468.342-.437.374-.414.4-.378.432-.351.459-.311.482-.279.509-.239.527-.2.549-.158.567-.117.581-.068.6-.027.594.027Zm-2.387,2.45-.531.171-.5.239-.464.293-.423.351-.374.405-.329.45-.279.491L128,94.1l-.162.567-.1.6-.032.626.036.63.1.6.167.572.225.54.284.5.338.459.383.41.428.36.468.3.5.248.536.176.563.113.59.036.594-.036.567-.108.536-.171.5-.239.468-.3.423-.347.378-.405.329-.45.279-.491.221-.531.162-.567.1-.6.036-.626-.036-.63-.1-.6-.171-.572-.23-.54-.284-.5-.338-.459-.383-.41-.432-.36-.468-.3-.509-.248-.536-.176-.567-.113-.59-.036-.59.036Z"
             data-name="Path 47"
             id="Path_47" />
        </g>
      </g>
      <g
         transform="translate(2203.231 1260.141)"
         data-name="Group 16"
         id="Group_16">
        <path
           fill="#f1f0ed"
           transform="translate(-156.09 -89.21)"
           d="M172.595,89.228a.482.482,0,0,0-.536.536v1.378a.481.481,0,0,0,.536.531h1.085l-2.306,7.449q-2.932-8.538-3.26-9.489a.621.621,0,0,0-.594-.423h-.964a.621.621,0,0,0-.594.423q-.324.952-3.229,9.489l-2.306-7.44h1.09a.481.481,0,0,0,.531-.536V89.768a.48.48,0,0,0-.531-.531h-4.891a.481.481,0,0,0-.536.531v1.378a.482.482,0,0,0,.536.536h1.148q3.452,10.119,3.832,11.249a.63.63,0,0,0,.59.41h1.04a.621.621,0,0,0,.59-.423q.317-.925,3.206-9.218,2.871,8.3,3.193,9.218a.621.621,0,0,0,.594.423h1.04a.63.63,0,0,0,.585-.41l3.837-11.249h1.148a.481.481,0,0,0,.531-.536V89.768a.484.484,0,0,0-.536-.54Z"
           data-name="Path 48"
           id="Path_48" />
        <g
           data-name="Group 15"
           id="Group_15">
          <path
             stroke-width="1"
             stroke="rgba(0,0,0,0)"
             fill="#333"
             transform="translate(-156.09 -89.21)"
             d="M172.595,89.228a.482.482,0,0,0-.536.536v1.378a.481.481,0,0,0,.536.531h1.085l-2.306,7.449q-2.932-8.538-3.26-9.489a.621.621,0,0,0-.594-.423h-.964a.621.621,0,0,0-.594.423q-.324.952-3.229,9.489l-2.306-7.44h1.09a.481.481,0,0,0,.531-.536V89.768a.48.48,0,0,0-.531-.531h-4.891a.481.481,0,0,0-.536.531v1.378a.482.482,0,0,0,.536.536h1.148q3.452,10.119,3.832,11.249a.63.63,0,0,0,.59.41h1.04a.621.621,0,0,0,.59-.423q.317-.925,3.206-9.218,2.871,8.3,3.193,9.218a.621.621,0,0,0,.594.423h1.04a.63.63,0,0,0,.585-.41l3.837-11.249h1.148a.481.481,0,0,0,.531-.536V89.768a.484.484,0,0,0-.536-.54Z"
             data-name="Path 49"
             id="Path_49" />
        </g>
      </g>
      <g
         transform="translate(2225.219 1260.159)"
         data-name="Group 18"
         id="Group_18">
        <path
           fill="#f1f0ed"
           transform="translate(-204.94 -89.25)"
           d="M210,100.86V89.786a.481.481,0,0,0-.531-.536h-3.08a.482.482,0,0,0-.536.536v1.378a.481.481,0,0,0,.536.531h1.121v9.169h-2.036a.481.481,0,0,0-.531.536v1.378a.48.48,0,0,0,.531.531h5.652a.481.481,0,0,0,.536-.531V101.4a.489.489,0,0,0-.54-.54Z"
           data-name="Path 50"
           id="Path_50" />
        <g
           data-name="Group 17"
           id="Group_17">
          <path
             stroke-width="1"
             stroke="rgba(0,0,0,0)"
             fill="#333"
             transform="translate(-204.94 -89.25)"
             d="M210,100.86V89.786a.481.481,0,0,0-.531-.536h-3.08a.482.482,0,0,0-.536.536v1.378a.481.481,0,0,0,.536.531h1.121v9.169h-2.036a.481.481,0,0,0-.531.536v1.378a.48.48,0,0,0,.531.531h5.652a.481.481,0,0,0,.536-.531V101.4a.489.489,0,0,0-.54-.54Z"
             data-name="Path 51"
             id="Path_51" />
        </g>
      </g>
      <g
         transform="translate(2232.304 1256.698)"
         data-name="Group 20"
         id="Group_20">
        <path
           fill="#f1f0ed"
           transform="translate(-220.69 -81.56)"
           d="M229.359,91.927a.483.483,0,0,0-.536.531v2.607a1.752,1.752,0,0,1-1.707,1.824c-1.342,0-1.909-.563-1.909-1.864V87.459h3.265a.481.481,0,0,0,.536-.531V85.55a.482.482,0,0,0-.536-.536h-3.265V82.091a.481.481,0,0,0-.536-.531h-1.423a.483.483,0,0,0-.536.531v2.923h-1.491a.481.481,0,0,0-.531.536v1.378a.48.48,0,0,0,.531.531h1.491v7.692a3.917,3.917,0,0,0,4.2,4.157c2.634,0,4.337-1.576,4.337-4.017V92.467a.482.482,0,0,0-.536-.54Z"
           data-name="Path 52"
           id="Path_52" />
        <g
           data-name="Group 19"
           id="Group_19">
          <path
             stroke-width="1"
             stroke="rgba(0,0,0,0)"
             fill="#333"
             transform="translate(-220.69 -81.56)"
             d="M229.359,91.927a.483.483,0,0,0-.536.531v2.607a1.752,1.752,0,0,1-1.707,1.824c-1.342,0-1.909-.563-1.909-1.864V87.459h3.265a.481.481,0,0,0,.536-.531V85.55a.482.482,0,0,0-.536-.536h-3.265V82.091a.481.481,0,0,0-.536-.531h-1.423a.483.483,0,0,0-.536.531v2.923h-1.491a.481.481,0,0,0-.531.536v1.378a.48.48,0,0,0,.531.531h1.491v7.692a3.917,3.917,0,0,0,4.2,4.157c2.634,0,4.337-1.576,4.337-4.017V92.467a.482.482,0,0,0-.536-.54Z"
             data-name="Path 53"
             id="Path_53" />
        </g>
      </g>
      <g
         transform="translate(2227.44 1255.266)"
         data-name="Group 22"
         id="Group_22">
        <path
           fill="#f1f0ed"
           transform="translate(-209.87 -78.37)"
           d="M211.433,78.37a1.558,1.558,0,1,0,1.558,1.558A1.56,1.56,0,0,0,211.433,78.37Z"
           data-name="Path 54"
           id="Path_54" />
        <g
           data-name="Group 21"
           id="Group_21">
          <path
             stroke-width="1"
             stroke="rgba(0,0,0,0)"
             fill="#333"
             transform="translate(-209.87 -78.37)"
             d="M211.433,78.37a1.558,1.558,0,1,0,1.558,1.558A1.56,1.56,0,0,0,211.433,78.37Z"
             data-name="Path 55"
             id="Path_55" />
        </g>
      </g>
      <g
         transform="translate(2170.065 1298.714)"
         data-name="Group 24"
         id="Group_24">
        <path
           fill="#f1f0ed"
           transform="translate(-82.37 -174.93)"
           d="M86.072,174.934l.158,0,.153.009.149.009.14.009.131.014.131.018.117.018.117.018.108.022.1.023.095.027.122.041.122.041.117.05.113.05.113.054.108.063.1.063.1.072.1.072.1.077.095.081.09.086.09.09.086.095.086.1.081.1.077.1.072.108.072.113.068.113.063.117.059.122.059.122.054.126.05.131.05.131.041.14.041.14.041.149.032.149.032.158.027.162.023.162.018.171.018.176.009.18.009.185,0,.189,0,.2,0,.171,0,.167,0,.162-.014.162-.013.158-.018.153-.022.149-.027.144-.027.144-.032.135-.036.135-.036.131-.041.126-.054.153-.059.144-.063.144-.063.135-.068.135-.072.126-.077.126-.077.117-.086.117-.086.108-.086.108-.095.1-.095.1-.077.068-.081.072-.081.063-.09.063-.09.063-.095.059-.1.054-.1.054-.108.05-.113.049-.113.045-.122.045-.122.041-.095.032-.1.023-.1.027-.113.023-.117.018-.122.018-.122.013-.131.014-.135.009-.14.009-.144,0-.153,0H82.37V174.93h3.535Zm-1.86,7.575H85.77l.171,0,.162,0,.144-.014.135-.009.117-.018.1-.018.095-.018.108-.032.1-.036.1-.036.095-.045.09-.049.086-.059.081-.059.077-.063.072-.072.068-.086.063-.09.063-.108.059-.113.059-.126.05-.14.05-.144.045-.162.036-.171.032-.189.027-.2.018-.216L88.1,180l.009-.243v-.513L88.1,179l-.018-.225-.018-.212-.027-.194-.032-.18-.036-.162-.045-.149-.05-.14-.054-.131-.059-.122-.063-.113-.068-.108-.072-.1-.077-.09-.081-.081-.086-.077-.095-.072-.1-.063-.1-.054-.108-.054-.113-.041-.122-.041-.126-.032-.108-.018-.131-.018-.153-.018-.18-.009-.2-.009-.225-.009-.248,0H84.212Z"
           data-name="Path 56"
           id="Path_56" />
        <g
           data-name="Group 23"
           id="Group_23">
          <path
             stroke-width="1"
             stroke="rgba(0,0,0,0)"
             fill="#333"
             transform="translate(-82.37 -174.93)"
             d="M86.072,174.934l.158,0,.153.009.149.009.14.009.131.014.131.018.117.018.117.018.108.022.1.023.095.027.122.041.122.041.117.05.113.05.113.054.108.063.1.063.1.072.1.072.1.077.095.081.09.086.09.09.086.095.086.1.081.1.077.1.072.108.072.113.068.113.063.117.059.122.059.122.054.126.05.131.05.131.041.14.041.14.041.149.032.149.032.158.027.162.023.162.018.171.018.176.009.18.009.185,0,.189,0,.2,0,.171,0,.167,0,.162-.014.162-.013.158-.018.153-.022.149-.027.144-.027.144-.032.135-.036.135-.036.131-.041.126-.054.153-.059.144-.063.144-.063.135-.068.135-.072.126-.077.126-.077.117-.086.117-.086.108-.086.108-.095.1-.095.1-.077.068-.081.072-.081.063-.09.063-.09.063-.095.059-.1.054-.1.054-.108.05-.113.049-.113.045-.122.045-.122.041-.095.032-.1.023-.1.027-.113.023-.117.018-.122.018-.122.013-.131.014-.135.009-.14.009-.144,0-.153,0H82.37V174.93h3.535Zm-1.86,7.575H85.77l.171,0,.162,0,.144-.014.135-.009.117-.018.1-.018.095-.018.108-.032.1-.036.1-.036.095-.045.09-.049.086-.059.081-.059.077-.063.072-.072.068-.086.063-.09.063-.108.059-.113.059-.126.05-.14.05-.144.045-.162.036-.171.032-.189.027-.2.018-.216L88.1,180l.009-.243v-.513L88.1,179l-.018-.225-.018-.212-.027-.194-.032-.18-.036-.162-.045-.149-.05-.14-.054-.131-.059-.122-.063-.113-.068-.108-.072-.1-.077-.09-.081-.081-.086-.077-.095-.072-.1-.063-.1-.054-.108-.054-.113-.041-.122-.041-.126-.032-.108-.018-.131-.018-.153-.018-.18-.009-.2-.009-.225-.009-.248,0H84.212Z"
             data-name="Path 57"
             id="Path_57" />
        </g>
      </g>
      <g
         transform="translate(2178.867 1301.073)"
         data-name="Group 26"
         id="Group_26">
        <path
           fill="#f1f0ed"
           transform="translate(-101.93 -180.17)"
           d="M105.4,180.2l.207.027.2.041.194.05.189.063.176.077.176.086.162.1.158.108.149.122.144.135.135.144.122.153.117.167.1.185.095.189.086.207.072.216.063.23.054.243.041.252.032.266.018.279.014.288,0,.306h-4.377l.009.117.009.113.013.108.018.108.023.1.032.1.032.09.036.09.041.086.045.081.054.077.054.072.059.068.063.063.068.063.068.05.072.05.072.045.077.036.077.036.081.027.081.022.086.018.086.014.09.009h.153l.059,0,.063-.009.054-.009.059-.009.054-.014.054-.018.05-.023.05-.023.05-.023.05-.027.045-.032.041-.036.045-.036.041-.036.036-.041.041-.05.032-.045.036-.054.032-.054.032-.059.032-.063.027-.068.027-.068.023-.072.023-.072,1.743.288-.054.144-.059.14-.063.135-.068.131-.077.122-.077.117-.081.113-.086.108-.09.1-.095.095-.1.095-.108.081-.108.081-.113.077-.117.068-.122.063-.126.054-.131.05-.135.045-.14.041-.144.032-.149.027-.153.018-.158.018-.162.009h-.162l-.261,0-.248-.023-.239-.032-.23-.045-.216-.063-.207-.072-.194-.086-.189-.1-.176-.117-.162-.126-.153-.14-.144-.153-.131-.167-.1-.14-.086-.149-.081-.153-.077-.158-.063-.162-.059-.171-.05-.176-.045-.18-.032-.185-.027-.194-.023-.2-.009-.2,0-.207,0-.248.018-.239.023-.234.036-.221.045-.216.059-.207.063-.2.077-.189.086-.18.1-.171.1-.167.117-.153.126-.149.135-.135.14-.131.149-.113.149-.1.158-.095.162-.086.167-.068.171-.063.18-.05.18-.036.189-.032.194-.013.2-.009.225.009Zm-.856,1.419-.225.131-.2.18-.162.23-.117.261-.068.3-.023.338h2.612l-.077-.405-.09-.324-.108-.252-.117-.171-.2-.171-.216-.122-.234-.077-.257-.023-.275.023Z"
           data-name="Path 58"
           id="Path_58" />
        <g
           data-name="Group 25"
           id="Group_25">
          <path
             stroke-width="1"
             stroke="rgba(0,0,0,0)"
             fill="#333"
             transform="translate(-101.93 -180.17)"
             d="M105.4,180.2l.207.027.2.041.194.05.189.063.176.077.176.086.162.1.158.108.149.122.144.135.135.144.122.153.117.167.1.185.095.189.086.207.072.216.063.23.054.243.041.252.032.266.018.279.014.288,0,.306h-4.377l.009.117.009.113.013.108.018.108.023.1.032.1.032.09.036.09.041.086.045.081.054.077.054.072.059.068.063.063.068.063.068.05.072.05.072.045.077.036.077.036.081.027.081.022.086.018.086.014.09.009h.153l.059,0,.063-.009.054-.009.059-.009.054-.014.054-.018.05-.023.05-.023.05-.023.05-.027.045-.032.041-.036.045-.036.041-.036.036-.041.041-.05.032-.045.036-.054.032-.054.032-.059.032-.063.027-.068.027-.068.023-.072.023-.072,1.743.288-.054.144-.059.14-.063.135-.068.131-.077.122-.077.117-.081.113-.086.108-.09.1-.095.095-.1.095-.108.081-.108.081-.113.077-.117.068-.122.063-.126.054-.131.05-.135.045-.14.041-.144.032-.149.027-.153.018-.158.018-.162.009h-.162l-.261,0-.248-.023-.239-.032-.23-.045-.216-.063-.207-.072-.194-.086-.189-.1-.176-.117-.162-.126-.153-.14-.144-.153-.131-.167-.1-.14-.086-.149-.081-.153-.077-.158-.063-.162-.059-.171-.05-.176-.045-.18-.032-.185-.027-.194-.023-.2-.009-.2,0-.207,0-.248.018-.239.023-.234.036-.221.045-.216.059-.207.063-.2.077-.189.086-.18.1-.171.1-.167.117-.153.126-.149.135-.135.14-.131.149-.113.149-.1.158-.095.162-.086.167-.068.171-.063.18-.05.18-.036.189-.032.194-.013.2-.009.225.009Zm-.856,1.419-.225.131-.2.18-.162.23-.117.261-.068.3-.023.338h2.612l-.077-.405-.09-.324-.108-.252-.117-.171-.2-.171-.216-.122-.234-.077-.257-.023-.275.023Z"
             data-name="Path 59"
             id="Path_59" />
        </g>
      </g>
      <g
         transform="translate(2185.733 1301.227)"
         data-name="Group 28"
         id="Group_28">
        <path
           fill="#f1f0ed"
           transform="translate(-117.19 -180.51)"
           d="M117.19,180.51h1.833l1.243,3.368c.216.676.338,1.054.36,1.126.095-.284.158-.473.18-.563.059-.189.122-.374.189-.563.081-.221.5-1.346,1.256-3.368h1.8l-2.625,6.6h-1.572Z"
           data-name="Path 60"
           id="Path_60" />
        <g
           data-name="Group 27"
           id="Group_27">
          <path
             stroke-width="1"
             stroke="rgba(0,0,0,0)"
             fill="#333"
             transform="translate(-117.19 -180.51)"
             d="M117.19,180.51h1.833l1.243,3.368c.216.676.338,1.054.36,1.126.095-.284.158-.473.18-.563.059-.189.122-.374.189-.563.081-.221.5-1.346,1.256-3.368h1.8l-2.625,6.6h-1.572Z"
             data-name="Path 61"
             id="Path_61" />
        </g>
      </g>
      <g
         transform="translate(2193.271 1301.073)"
         data-name="Group 30"
         id="Group_30">
        <path
           fill="#f1f0ed"
           transform="translate(-133.94 -180.17)"
           d="M137.408,180.2l.207.027.2.041.194.05.185.063.18.077.171.086.162.1.158.108.149.122.144.135.135.144.126.153.113.167.108.185.095.189.081.207.072.216.063.23.054.243.041.252.032.266.023.279.009.288v.306h-4.377l0,.117.009.113.014.108.018.108.027.1.027.1.032.09.036.09.045.086.045.081.05.077.054.072.063.068.063.063.063.063.072.05.068.05.072.045.077.036.077.036.081.027.081.022.086.018.086.014.09.009h.153l.063,0,.059-.009.059-.009.054-.009.054-.014.054-.018.054-.023.05-.023.045-.023.05-.027.045-.032.045-.036.041-.036.041-.036.041-.041.036-.05.036-.045.032-.054.036-.054.031-.059.027-.063.027-.068.027-.068.027-.072.023-.072,1.738.288-.054.144-.059.14-.063.135-.068.131-.072.122-.077.117-.081.113-.09.108-.09.1-.095.095-.1.095-.1.081-.108.081-.117.077-.117.068-.122.063-.126.054-.131.05-.135.045-.14.041-.144.032-.149.027-.153.018-.153.018-.162.009h-.167l-.261,0-.248-.023-.239-.032-.225-.045-.221-.063-.207-.072-.194-.086-.185-.1-.176-.117-.167-.126-.153-.14-.14-.153-.135-.167-.095-.14-.09-.149-.081-.153-.072-.158-.068-.162-.059-.171-.05-.176-.041-.18-.036-.185-.027-.194-.018-.2-.013-.2,0-.207.009-.248.014-.239.027-.234.032-.221.05-.216.054-.207.068-.2.077-.189.086-.18.095-.171.108-.167.117-.153.126-.149.135-.135.14-.131.144-.113.153-.1.153-.095.162-.086.167-.068.176-.063.176-.05.185-.036.185-.032.194-.013.2-.009.221.009Zm-.856,1.419-.225.131-.2.18-.162.23-.113.261-.072.3-.018.338h2.612l-.081-.405-.09-.324-.1-.252-.117-.171-.2-.171-.216-.122-.239-.077-.257-.023-.275.023Z"
           data-name="Path 62"
           id="Path_62" />
        <g
           data-name="Group 29"
           id="Group_29">
          <path
             stroke-width="1"
             stroke="rgba(0,0,0,0)"
             fill="#333"
             transform="translate(-133.94 -180.17)"
             d="M137.408,180.2l.207.027.2.041.194.05.185.063.18.077.171.086.162.1.158.108.149.122.144.135.135.144.126.153.113.167.108.185.095.189.081.207.072.216.063.23.054.243.041.252.032.266.023.279.009.288v.306h-4.377l0,.117.009.113.014.108.018.108.027.1.027.1.032.09.036.09.045.086.045.081.05.077.054.072.063.068.063.063.063.063.072.05.068.05.072.045.077.036.077.036.081.027.081.022.086.018.086.014.09.009h.153l.063,0,.059-.009.059-.009.054-.009.054-.014.054-.018.054-.023.05-.023.045-.023.05-.027.045-.032.045-.036.041-.036.041-.036.041-.041.036-.05.036-.045.032-.054.036-.054.031-.059.027-.063.027-.068.027-.068.027-.072.023-.072,1.738.288-.054.144-.059.14-.063.135-.068.131-.072.122-.077.117-.081.113-.09.108-.09.1-.095.095-.1.095-.1.081-.108.081-.117.077-.117.068-.122.063-.126.054-.131.05-.135.045-.14.041-.144.032-.149.027-.153.018-.153.018-.162.009h-.167l-.261,0-.248-.023-.239-.032-.225-.045-.221-.063-.207-.072-.194-.086-.185-.1-.176-.117-.167-.126-.153-.14-.14-.153-.135-.167-.095-.14-.09-.149-.081-.153-.072-.158-.068-.162-.059-.171-.05-.176-.041-.18-.036-.185-.027-.194-.018-.2-.013-.2,0-.207.009-.248.014-.239.027-.234.032-.221.05-.216.054-.207.068-.2.077-.189.086-.18.095-.171.108-.167.117-.153.126-.149.135-.135.14-.131.144-.113.153-.1.153-.095.162-.086.167-.068.176-.063.176-.05.185-.036.185-.032.194-.013.2-.009.221.009Zm-.856,1.419-.225.131-.2.18-.162.23-.113.261-.072.3-.018.338h2.612l-.081-.405-.09-.324-.1-.252-.117-.171-.2-.171-.216-.122-.239-.077-.257-.023-.275.023Z"
             data-name="Path 63"
             id="Path_63" />
        </g>
      </g>
      <g
         transform="translate(2200.986 1298.714)"
         data-name="Group 32"
         id="Group_32">
        <path
           fill="#f1f0ed"
           transform="translate(-151.08 -174.93)"
           d="M151.08,174.93h1.747v9.115H151.08Z"
           data-name="Path 64"
           id="Path_64" />
        <g
           data-name="Group 31"
           id="Group_31">
          <path
             stroke-width="1"
             stroke="rgba(0,0,0,0)"
             fill="#333"
             transform="translate(-151.08 -174.93)"
             d="M151.08,174.93h1.747v9.115H151.08Z"
             data-name="Path 65"
             id="Path_65" />
        </g>
      </g>
      <g
         transform="translate(2204.241 1301.078)"
         data-name="Group 34"
         id="Group_34">
        <path
           fill="#f1f0ed"
           transform="translate(-158.32 -180.18)"
           d="M162.364,180.23l.3.059.288.086.27.108.261.131.248.158.23.18.221.2.2.225.176.234.153.248.131.261.108.275.081.284.059.3.036.311.014.324-.014.329-.036.315-.059.3-.086.288-.1.275-.135.266-.153.248-.18.239-.2.225-.221.207-.23.185-.248.158-.257.131-.27.113-.284.086-.3.059-.306.036-.32.014-.2,0-.2-.014-.194-.027-.2-.036-.189-.045-.194-.054-.185-.068-.189-.077-.185-.086-.176-.095-.171-.108-.158-.113-.149-.126-.14-.131-.131-.144-.117-.153-.113-.162-.1-.171-.09-.18-.081-.189-.068-.2-.059-.207-.05-.216-.036-.221-.027-.234-.014-.239-.009-.248.009-.194.014-.194.027-.189.036-.189.05-.185.059-.189.068-.185.081-.18.09-.18.1-.18.108-.167.117-.153.126-.149.135-.14.144-.131.153-.117.162-.108.171-.1.176-.09.18-.081.189-.068.189-.059.194-.05.2-.036.2-.027.207-.018.216,0,.324.014Zm-1.148,1.459-.23.1-.212.149-.2.185-.167.23-.131.261-.095.3-.054.338-.018.374.018.374.054.338.095.3.131.266.167.225.2.189.212.144.23.108.248.059.266.023.266-.023.243-.059.23-.108.212-.144.2-.189.167-.225.126-.266.095-.306.054-.338.018-.378-.018-.374-.054-.333-.095-.3-.126-.261-.167-.23-.2-.185-.212-.149-.23-.1-.243-.063-.266-.023-.266.023Z"
           data-name="Path 66"
           id="Path_66" />
        <g
           data-name="Group 33"
           id="Group_33">
          <path
             stroke-width="1"
             stroke="rgba(0,0,0,0)"
             fill="#333"
             transform="translate(-158.32 -180.18)"
             d="M162.364,180.23l.3.059.288.086.27.108.261.131.248.158.23.18.221.2.2.225.176.234.153.248.131.261.108.275.081.284.059.3.036.311.014.324-.014.329-.036.315-.059.3-.086.288-.1.275-.135.266-.153.248-.18.239-.2.225-.221.207-.23.185-.248.158-.257.131-.27.113-.284.086-.3.059-.306.036-.32.014-.2,0-.2-.014-.194-.027-.2-.036-.189-.045-.194-.054-.185-.068-.189-.077-.185-.086-.176-.095-.171-.108-.158-.113-.149-.126-.14-.131-.131-.144-.117-.153-.113-.162-.1-.171-.09-.18-.081-.189-.068-.2-.059-.207-.05-.216-.036-.221-.027-.234-.014-.239-.009-.248.009-.194.014-.194.027-.189.036-.189.05-.185.059-.189.068-.185.081-.18.09-.18.1-.18.108-.167.117-.153.126-.149.135-.14.144-.131.153-.117.162-.108.171-.1.176-.09.18-.081.189-.068.189-.059.194-.05.2-.036.2-.027.207-.018.216,0,.324.014Zm-1.148,1.459-.23.1-.212.149-.2.185-.167.23-.131.261-.095.3-.054.338-.018.374.018.374.054.338.095.3.131.266.167.225.2.189.212.144.23.108.248.059.266.023.266-.023.243-.059.23-.108.212-.144.2-.189.167-.225.126-.266.095-.306.054-.338.018-.378-.018-.374-.054-.333-.095-.3-.126-.261-.167-.23-.2-.185-.212-.149-.23-.1-.243-.063-.266-.023-.266.023Z"
             data-name="Path 67"
             id="Path_67" />
        </g>
      </g>
      <g
         transform="translate(2212.499 1301.077)"
         data-name="Group 36"
         id="Group_36">
        <path
           fill="#f1f0ed"
           transform="translate(-176.67 -180.18)"
           d="M180.7,180.2l.167.027.162.036.158.05.153.059.153.068.144.081.144.09.135.1.135.113.131.126.126.131.117.144.108.149.1.162.09.167.081.176.072.189.063.189.05.2.045.212.032.216.023.23.018.234,0,.243,0,.252-.018.239-.023.234-.032.225-.045.212-.054.207-.059.2-.072.189-.081.18-.095.171-.1.162-.108.158-.122.144-.126.135-.131.126-.135.113-.135.1-.144.095-.149.081-.149.068-.158.063-.158.045-.162.041-.167.027-.171.014-.176.009-.081,0h-.086l-.081-.009-.081-.009-.077-.009-.077-.018-.077-.014-.077-.022-.072-.018-.072-.027-.072-.027-.072-.027-.068-.036-.068-.032-.072-.041-.068-.045-.072-.045-.068-.05-.072-.054-.072-.059-.072-.059-.077-.063-.072-.072-.072-.072-.077-.077-.077-.077v3.323H176.67v-9.115H178.3v.968l.05-.072.054-.077.054-.068.059-.072.063-.063.063-.068.063-.063.068-.059.072-.059.077-.054.077-.054.077-.05.086-.05.081-.045.086-.045.086-.036.09-.036.09-.032.09-.027.095-.023.09-.023.095-.018.1-.009.1-.013.1,0h.1l.176,0Zm-1.3,1.437-.212.1-.2.14-.176.176-.153.216-.117.257-.086.293-.05.329-.018.369.018.423.054.374.086.329.126.284.158.234.185.194.2.149.216.108.23.063.248.022.234-.022.221-.059.2-.095.185-.14.171-.176.144-.221.113-.27.081-.32.05-.369.018-.419-.018-.392-.05-.351-.081-.311-.117-.266-.153-.225-.171-.18-.194-.14-.207-.1-.221-.059-.239-.018-.248.018Z"
           data-name="Path 68"
           id="Path_68" />
        <g
           data-name="Group 35"
           id="Group_35">
          <path
             stroke-width="1"
             stroke="rgba(0,0,0,0)"
             fill="#333"
             transform="translate(-176.67 -180.18)"
             d="M180.7,180.2l.167.027.162.036.158.05.153.059.153.068.144.081.144.09.135.1.135.113.131.126.126.131.117.144.108.149.1.162.09.167.081.176.072.189.063.189.05.2.045.212.032.216.023.23.018.234,0,.243,0,.252-.018.239-.023.234-.032.225-.045.212-.054.207-.059.2-.072.189-.081.18-.095.171-.1.162-.108.158-.122.144-.126.135-.131.126-.135.113-.135.1-.144.095-.149.081-.149.068-.158.063-.158.045-.162.041-.167.027-.171.014-.176.009-.081,0h-.086l-.081-.009-.081-.009-.077-.009-.077-.018-.077-.014-.077-.022-.072-.018-.072-.027-.072-.027-.072-.027-.068-.036-.068-.032-.072-.041-.068-.045-.072-.045-.068-.05-.072-.054-.072-.059-.072-.059-.077-.063-.072-.072-.072-.072-.077-.077-.077-.077v3.323H176.67v-9.115H178.3v.968l.05-.072.054-.077.054-.068.059-.072.063-.063.063-.068.063-.063.068-.059.072-.059.077-.054.077-.054.077-.05.086-.05.081-.045.086-.045.086-.036.09-.036.09-.032.09-.027.095-.023.09-.023.095-.018.1-.009.1-.013.1,0h.1l.176,0Zm-1.3,1.437-.212.1-.2.14-.176.176-.153.216-.117.257-.086.293-.05.329-.018.369.018.423.054.374.086.329.126.284.158.234.185.194.2.149.216.108.23.063.248.022.234-.022.221-.059.2-.095.185-.14.171-.176.144-.221.113-.27.081-.32.05-.369.018-.419-.018-.392-.05-.351-.081-.311-.117-.266-.153-.225-.171-.18-.194-.14-.207-.1-.221-.059-.239-.018-.248.018Z"
             data-name="Path 69"
             id="Path_69" />
        </g>
      </g>
      <g
         transform="translate(2219.937 1301.073)"
         data-name="Group 38"
         id="Group_38">
        <path
           fill="#f1f0ed"
           transform="translate(-193.2 -180.17)"
           d="M196.663,180.2l.207.027.2.041.194.05.185.063.18.077.171.086.167.1.153.108.153.122.14.135.135.144.126.153.117.167.1.185.095.189.081.207.077.216.063.23.05.243.041.252.032.266.023.279.009.288v.306h-4.377l0,.117.009.113.018.108.018.108.023.1.027.1.032.09.041.09.041.086.045.081.05.077.059.072.059.068.063.063.068.063.068.05.068.05.077.045.072.036.081.036.077.027.086.022.081.018.09.014.086.009h.158l.058,0,.059-.009.059-.009.059-.009.054-.014.05-.018.054-.023.05-.023.05-.023.045-.027.045-.032.045-.036.04-.036.041-.036.041-.041.036-.05.036-.045.036-.054.032-.054.031-.059.027-.063.032-.068.023-.068.027-.072.023-.072,1.738.288-.054.144-.059.14-.063.135-.068.131-.072.122-.077.117-.081.113-.086.108-.09.1-.1.095-.1.095-.1.081-.108.081-.113.077-.122.068-.122.063-.126.054-.131.05-.135.045-.14.041-.144.032-.149.027-.149.018-.158.018-.162.009H196.4l-.257,0-.252-.023-.239-.032-.225-.045-.216-.063-.207-.072-.2-.086-.185-.1-.176-.117-.162-.126-.153-.14-.144-.153-.135-.167-.095-.14-.09-.149-.081-.153-.072-.158-.068-.162-.054-.171-.054-.176-.041-.18-.036-.185-.027-.194-.018-.2-.009-.2,0-.207,0-.248.014-.239.027-.234.036-.221.045-.216.054-.207.068-.2.077-.189.086-.18.095-.171.108-.167.117-.153.126-.149.135-.135.14-.131.144-.113.153-.1.158-.095.158-.086.171-.068.171-.063.176-.05.185-.036.189-.032.194-.013.2-.009.221.009Zm-.856,1.419-.221.131-.2.18-.167.23-.113.261-.068.3-.023.338h2.612l-.081-.405-.09-.324-.1-.252-.117-.171-.2-.171-.216-.122-.239-.077-.257-.023-.27.023Z"
           data-name="Path 70"
           id="Path_70" />
        <g
           data-name="Group 37"
           id="Group_37">
          <path
             stroke-width="1"
             stroke="rgba(0,0,0,0)"
             fill="#333"
             transform="translate(-193.2 -180.17)"
             d="M196.663,180.2l.207.027.2.041.194.05.185.063.18.077.171.086.167.1.153.108.153.122.14.135.135.144.126.153.117.167.1.185.095.189.081.207.077.216.063.23.05.243.041.252.032.266.023.279.009.288v.306h-4.377l0,.117.009.113.018.108.018.108.023.1.027.1.032.09.041.09.041.086.045.081.05.077.059.072.059.068.063.063.068.063.068.05.068.05.077.045.072.036.081.036.077.027.086.022.081.018.09.014.086.009h.158l.058,0,.059-.009.059-.009.059-.009.054-.014.05-.018.054-.023.05-.023.05-.023.045-.027.045-.032.045-.036.04-.036.041-.036.041-.041.036-.05.036-.045.036-.054.032-.054.031-.059.027-.063.032-.068.023-.068.027-.072.023-.072,1.738.288-.054.144-.059.14-.063.135-.068.131-.072.122-.077.117-.081.113-.086.108-.09.1-.1.095-.1.095-.1.081-.108.081-.113.077-.122.068-.122.063-.126.054-.131.05-.135.045-.14.041-.144.032-.149.027-.149.018-.158.018-.162.009H196.4l-.257,0-.252-.023-.239-.032-.225-.045-.216-.063-.207-.072-.2-.086-.185-.1-.176-.117-.162-.126-.153-.14-.144-.153-.135-.167-.095-.14-.09-.149-.081-.153-.072-.158-.068-.162-.054-.171-.054-.176-.041-.18-.036-.185-.027-.194-.018-.2-.009-.2,0-.207,0-.248.014-.239.027-.234.036-.221.045-.216.054-.207.068-.2.077-.189.086-.18.095-.171.108-.167.117-.153.126-.149.135-.135.14-.131.144-.113.153-.1.158-.095.158-.086.171-.068.171-.063.176-.05.185-.036.189-.032.194-.013.2-.009.221.009Zm-.856,1.419-.221.131-.2.18-.167.23-.113.261-.068.3-.023.338h2.612l-.081-.405-.09-.324-.1-.252-.117-.171-.2-.171-.216-.122-.239-.077-.257-.023-.27.023Z"
             data-name="Path 71"
             id="Path_71" />
        </g>
      </g>
      <g
         transform="translate(2227.574 1301.078)"
         data-name="Group 40"
         id="Group_40">
        <path
           fill="#f1f0ed"
           transform="translate(-210.17 -180.18)"
           d="M210.17,186.93v-6.6h1.621v.937a2.789,2.789,0,0,1,.752-.874,1.386,1.386,0,0,1,.757-.212,2.206,2.206,0,0,1,1.148.329c-.054.153-.486,1.369-.54,1.522a1.548,1.548,0,0,0-.82-.284.96.96,0,0,0-.621.2,1.373,1.373,0,0,0-.4.734,10.188,10.188,0,0,0-.149,2.211v2.04Z"
           data-name="Path 72"
           id="Path_72" />
        <g
           data-name="Group 39"
           id="Group_39">
          <path
             stroke-width="1"
             stroke="rgba(0,0,0,0)"
             fill="#333"
             transform="translate(-210.17 -180.18)"
             d="M210.17,186.93v-6.6h1.621v.937a2.789,2.789,0,0,1,.752-.874,1.386,1.386,0,0,1,.757-.212,2.206,2.206,0,0,1,1.148.329c-.054.153-.486,1.369-.54,1.522a1.548,1.548,0,0,0-.82-.284.96.96,0,0,0-.621.2,1.373,1.373,0,0,0-.4.734,10.188,10.188,0,0,0-.149,2.211v2.04Z"
             data-name="Path 73"
             id="Path_73" />
        </g>
      </g>
      <g
         transform="translate(2177.229 1313.829)"
         data-name="Group 42"
         id="Group_42">
        <path
           fill="#f1f0ed"
           transform="translate(-98.29 -208.52)"
           d="M100.082,214.649a2.178,2.178,0,0,0,.658,1.324,1.988,1.988,0,0,0,1.333.423,2.042,2.042,0,0,0,1.337-.378,1.105,1.105,0,0,0,.45-.878.831.831,0,0,0-.189-.549,1.5,1.5,0,0,0-.662-.4c-.216-.072-.7-.207-1.473-.4a5.039,5.039,0,0,1-2.076-.9,2.4,2.4,0,0,1-.446-3.139,2.54,2.54,0,0,1,1.139-.923,4.641,4.641,0,0,1,1.792-.315,3.842,3.842,0,0,1,2.585.752,2.651,2.651,0,0,1,.91,2.008l-1.842.081a1.575,1.575,0,0,0-.5-1.013,1.878,1.878,0,0,0-1.166-.306,2.093,2.093,0,0,0-1.256.329.665.665,0,0,0-.293.567.694.694,0,0,0,.275.554,4.828,4.828,0,0,0,1.689.608,9.1,9.1,0,0,1,1.99.653,2.6,2.6,0,0,1,1,.928,2.713,2.713,0,0,1,.365,1.455,2.671,2.671,0,0,1-.432,1.464,2.6,2.6,0,0,1-1.234,1.018,5.187,5.187,0,0,1-1.981.333,3.959,3.959,0,0,1-2.657-.8,3.5,3.5,0,0,1-1.108-2.328Z"
           data-name="Path 74"
           id="Path_74" />
        <g
           data-name="Group 41"
           id="Group_41">
          <path
             stroke-width="1"
             stroke="rgba(0,0,0,0)"
             fill="#333"
             transform="translate(-98.29 -208.52)"
             d="M100.082,214.649a2.178,2.178,0,0,0,.658,1.324,1.988,1.988,0,0,0,1.333.423,2.042,2.042,0,0,0,1.337-.378,1.105,1.105,0,0,0,.45-.878.831.831,0,0,0-.189-.549,1.5,1.5,0,0,0-.662-.4c-.216-.072-.7-.207-1.473-.4a5.039,5.039,0,0,1-2.076-.9,2.4,2.4,0,0,1-.446-3.139,2.54,2.54,0,0,1,1.139-.923,4.641,4.641,0,0,1,1.792-.315,3.842,3.842,0,0,1,2.585.752,2.651,2.651,0,0,1,.91,2.008l-1.842.081a1.575,1.575,0,0,0-.5-1.013,1.878,1.878,0,0,0-1.166-.306,2.093,2.093,0,0,0-1.256.329.665.665,0,0,0-.293.567.694.694,0,0,0,.275.554,4.828,4.828,0,0,0,1.689.608,9.1,9.1,0,0,1,1.99.653,2.6,2.6,0,0,1,1,.928,2.713,2.713,0,0,1,.365,1.455,2.671,2.671,0,0,1-.432,1.464,2.6,2.6,0,0,1-1.234,1.018,5.187,5.187,0,0,1-1.981.333,3.959,3.959,0,0,1-2.657-.8,3.5,3.5,0,0,1-1.108-2.328Z"
             data-name="Path 75"
             id="Path_75" />
        </g>
      </g>
      <g
         transform="translate(2186.26 1316.494)"
         data-name="Group 44"
         id="Group_44">
        <path
           fill="#f1f0ed"
           transform="translate(-118.36 -214.44)"
           d="M122.742,220.056a2.528,2.528,0,0,1-.946.833,2.67,2.67,0,0,1-1.243.306,2.44,2.44,0,0,1-1.193-.293,1.708,1.708,0,0,1-.761-.824,3.564,3.564,0,0,1-.239-1.459V214.44h1.747v3.035a8.594,8.594,0,0,0,.095,1.707.967.967,0,0,0,.351.5,1.093,1.093,0,0,0,.648.185,1.353,1.353,0,0,0,.8-.248,1.242,1.242,0,0,0,.486-.608,7.148,7.148,0,0,0,.131-1.779V214.44h1.747v6.6h-1.626Z"
           data-name="Path 76"
           id="Path_76" />
        <g
           data-name="Group 43"
           id="Group_43">
          <path
             stroke-width="1"
             stroke="rgba(0,0,0,0)"
             fill="#333"
             transform="translate(-118.36 -214.44)"
             d="M122.742,220.056a2.528,2.528,0,0,1-.946.833,2.67,2.67,0,0,1-1.243.306,2.44,2.44,0,0,1-1.193-.293,1.708,1.708,0,0,1-.761-.824,3.564,3.564,0,0,1-.239-1.459V214.44h1.747v3.035a8.594,8.594,0,0,0,.095,1.707.967.967,0,0,0,.351.5,1.093,1.093,0,0,0,.648.185,1.353,1.353,0,0,0,.8-.248,1.242,1.242,0,0,0,.486-.608,7.148,7.148,0,0,0,.131-1.779V214.44h1.747v6.6h-1.626Z"
             data-name="Path 77"
             id="Path_77" />
        </g>
      </g>
      <g
         transform="translate(2194.066 1316.346)"
         data-name="Group 46"
         id="Group_46">
        <path
           fill="#f1f0ed"
           transform="translate(-135.71 -214.11)"
           d="M137.318,214.259v.9a2.6,2.6,0,0,1,2.058-1.049,2.18,2.18,0,0,1,1.1.261,2.017,2.017,0,0,1,.766.788,3.08,3.08,0,0,1,.937-.788,2.3,2.3,0,0,1,1.076-.261,2.412,2.412,0,0,1,1.229.293,1.815,1.815,0,0,1,.757.869,3.828,3.828,0,0,1,.18,1.369v4.22h-1.747v-3.774a2.839,2.839,0,0,0-.18-1.265.822.822,0,0,0-.748-.374,1.166,1.166,0,0,0-.689.225,1.269,1.269,0,0,0-.468.653,4.772,4.772,0,0,0-.14,1.365v3.17H139.7v-3.616a4.927,4.927,0,0,0-.095-1.243.806.806,0,0,0-.288-.419.935.935,0,0,0-.536-.135,1.282,1.282,0,0,0-.725.216,1.2,1.2,0,0,0-.464.63,4.612,4.612,0,0,0-.14,1.36v3.211H135.71v-6.606Z"
           data-name="Path 78"
           id="Path_78" />
        <g
           data-name="Group 45"
           id="Group_45">
          <path
             stroke-width="1"
             stroke="rgba(0,0,0,0)"
             fill="#333"
             transform="translate(-135.71 -214.11)"
             d="M137.318,214.259v.9a2.6,2.6,0,0,1,2.058-1.049,2.18,2.18,0,0,1,1.1.261,2.017,2.017,0,0,1,.766.788,3.08,3.08,0,0,1,.937-.788,2.3,2.3,0,0,1,1.076-.261,2.412,2.412,0,0,1,1.229.293,1.815,1.815,0,0,1,.757.869,3.828,3.828,0,0,1,.18,1.369v4.22h-1.747v-3.774a2.839,2.839,0,0,0-.18-1.265.822.822,0,0,0-.748-.374,1.166,1.166,0,0,0-.689.225,1.269,1.269,0,0,0-.468.653,4.772,4.772,0,0,0-.14,1.365v3.17H139.7v-3.616a4.927,4.927,0,0,0-.095-1.243.806.806,0,0,0-.288-.419.935.935,0,0,0-.536-.135,1.282,1.282,0,0,0-.725.216,1.2,1.2,0,0,0-.464.63,4.612,4.612,0,0,0-.14,1.36v3.211H135.71v-6.606Z"
             data-name="Path 79"
             id="Path_79" />
        </g>
      </g>
      <g
         transform="translate(2205.5 1316.346)"
         data-name="Group 48"
         id="Group_48">
        <path
           fill="#f1f0ed"
           transform="translate(-161.12 -214.11)"
           d="M162.732,214.259v.9a2.6,2.6,0,0,1,2.058-1.049,2.209,2.209,0,0,1,1.1.261,2.007,2.007,0,0,1,.761.788,3.042,3.042,0,0,1,.941-.788,2.272,2.272,0,0,1,1.072-.261,2.441,2.441,0,0,1,1.234.293,1.83,1.83,0,0,1,.752.869,3.83,3.83,0,0,1,.18,1.369v4.22h-1.747v-3.774a2.774,2.774,0,0,0-.18-1.265.822.822,0,0,0-.748-.374,1.166,1.166,0,0,0-.689.225,1.237,1.237,0,0,0-.464.653,4.582,4.582,0,0,0-.144,1.365v3.17h-1.747v-3.616A4.927,4.927,0,0,0,165.02,216a.807.807,0,0,0-.288-.419.929.929,0,0,0-.531-.135,1.286,1.286,0,0,0-.73.216,1.2,1.2,0,0,0-.464.63,4.774,4.774,0,0,0-.14,1.36v3.211H161.12v-6.606Z"
           data-name="Path 80"
           id="Path_80" />
        <g
           data-name="Group 47"
           id="Group_47">
          <path
             stroke-width="1"
             stroke="rgba(0,0,0,0)"
             fill="#333"
             transform="translate(-161.12 -214.11)"
             d="M162.732,214.259v.9a2.6,2.6,0,0,1,2.058-1.049,2.209,2.209,0,0,1,1.1.261,2.007,2.007,0,0,1,.761.788,3.042,3.042,0,0,1,.941-.788,2.272,2.272,0,0,1,1.072-.261,2.441,2.441,0,0,1,1.234.293,1.83,1.83,0,0,1,.752.869,3.83,3.83,0,0,1,.18,1.369v4.22h-1.747v-3.774a2.774,2.774,0,0,0-.18-1.265.822.822,0,0,0-.748-.374,1.166,1.166,0,0,0-.689.225,1.237,1.237,0,0,0-.464.653,4.582,4.582,0,0,0-.144,1.365v3.17h-1.747v-3.616A4.927,4.927,0,0,0,165.02,216a.807.807,0,0,0-.288-.419.929.929,0,0,0-.531-.135,1.286,1.286,0,0,0-.73.216,1.2,1.2,0,0,0-.464.63,4.774,4.774,0,0,0-.14,1.36v3.211H161.12v-6.606Z"
             data-name="Path 81"
             id="Path_81" />
        </g>
      </g>
      <g
         transform="translate(2217.077 1313.973)"
         data-name="Group 50"
         id="Group_50">
        <path
           fill="#f1f0ed"
           transform="translate(-186.84 -208.83)"
           d="M186.84,210.447V208.83h1.747v1.617Z"
           data-name="Path 82"
           id="Path_82" />
        <g
           data-name="Group 49"
           id="Group_49">
          <path
             stroke-width="1"
             stroke="rgba(0,0,0,0)"
             fill="#333"
             transform="translate(-186.84 -208.83)"
             d="M186.84,210.447V208.83h1.747v1.617Z"
             data-name="Path 83"
             id="Path_83" />
        </g>
      </g>
      <g
         transform="translate(2220.019 1314.162)"
         data-name="Group 52"
         id="Group_52">
        <path
           fill="#f1f0ed"
           transform="translate(-193.38 -209.26)"
           d="M197.127,212.984h-1.193v2.661a6.509,6.509,0,0,0,.036.941.376.376,0,0,0,.153.221.5.5,0,0,0,.3.09,2.262,2.262,0,0,0,.7-.171c.013.135.135,1.22.149,1.356a3.434,3.434,0,0,1-1.378.261,2.14,2.14,0,0,1-.851-.158,1.266,1.266,0,0,1-.558-.41,1.629,1.629,0,0,1-.243-.68,7.878,7.878,0,0,1-.059-1.229v-2.882h-.8v-1.392h.8v-1.31l1.756-1.022v2.333h1.189Z"
           data-name="Path 84"
           id="Path_84" />
        <g
           data-name="Group 51"
           id="Group_51">
          <path
             stroke-width="1"
             stroke="rgba(0,0,0,0)"
             fill="#333"
             transform="translate(-193.38 -209.26)"
             d="M197.127,212.984h-1.193v2.661a6.509,6.509,0,0,0,.036.941.376.376,0,0,0,.153.221.5.5,0,0,0,.3.09,2.262,2.262,0,0,0,.7-.171c.013.135.135,1.22.149,1.356a3.434,3.434,0,0,1-1.378.261,2.14,2.14,0,0,1-.851-.158,1.266,1.266,0,0,1-.558-.41,1.629,1.629,0,0,1-.243-.68,7.878,7.878,0,0,1-.059-1.229v-2.882h-.8v-1.392h.8v-1.31l1.756-1.022v2.333h1.189Z"
             data-name="Path 85"
             id="Path_85" />
        </g>
      </g>
      <g
         transform="translate(2195.055 1285.83)"
         data-name="Group 54"
         id="Group_54">
        <path
           fill="#f0f"
           transform="translate(-137.91 -146.29)"
           d="M148.8,146.29h0v2.67H137.91v-2.67H148.8Z"
           data-name="Path 86"
           id="Path_86" />
        <g
           data-name="Group 53"
           id="Group_53">
          <path
             stroke-width="1"
             stroke="rgba(0,0,0,0)"
             fill="rgba(0,0,0,0)"
             transform="translate(-137.91 -146.29)"
             d="M148.8,146.29h0v2.67H137.91v-2.67H148.8Z"
             data-name="Path 87"
             id="Path_87" />
        </g>
      </g>
      <g
         transform="translate(2217.077 1316.494)"
         data-name="Group 56"
         id="Group_56">
        <path
           fill="#f1f0ed"
           transform="translate(-186.84 -214.44)"
           d="M186.84,214.44h1.747v6.606H186.84Z"
           data-name="Path 88"
           id="Path_88" />
        <g
           data-name="Group 55"
           id="Group_55">
          <path
             stroke-width="1"
             stroke="rgba(0,0,0,0)"
             fill="#333"
             transform="translate(-186.84 -214.44)"
             d="M186.84,214.44h1.747v6.606H186.84Z"
             data-name="Path 89"
             id="Path_89" />
        </g>
      </g>
    </g>
    <g
       opacity="0.1"
       transform="translate(6579.813 -387.187)"
       id="Elementer">
      <g
         data-name="Group 73"
         id="Group_73">
        <path
           fill="#333"
           d="M18.3,26.3a10.982,10.982,0,0,1,2.9-10.6l1.7,1.7a8.5,8.5,0,0,0-2.2,8.3Z"
           data-name="Path 96"
           id="Path_96" />
      </g>
      <g
         data-name="Group 74"
         id="Group_74">
        <path
           fill="#333"
           d="M31.8,54V51.6c5.6,0,6.6-3.1,7.6-5.8a11.639,11.639,0,0,1,.6-1.5,21.332,21.332,0,0,1,4.6-6.5l1.6,1.7a18.49,18.49,0,0,0-4.1,5.8,8.93,8.93,0,0,0-.5,1.3C40.7,49.3,39.1,54,31.8,54Z"
           data-name="Path 97"
           id="Path_97" />
      </g>
      <g
         data-name="Group 75"
         id="Group_75">
        <path
           fill="#333"
           d="M31.8,54c-6.1,0-8.5-5.4-9.9-8.3a6.314,6.314,0,0,1-.4-.9,19.917,19.917,0,0,0-3.8-5.2l1.6-1.7a21.156,21.156,0,0,1,4.4,5.9,9.249,9.249,0,0,0,.5,1c1.3,2.8,3.1,6.9,7.7,6.9V54Z"
           data-name="Path 98"
           id="Path_98" />
      </g>
      <g
         data-name="Group 76"
         id="Group_76">
        <path
           fill="#333"
           d="M11.2,24.5A20.5,20.5,0,0,1,16.8,9.7,20.356,20.356,0,0,1,31.2,3.2,20.571,20.571,0,0,1,46.1,8.8a20.356,20.356,0,0,1,6.5,14.4v1.3l-2.4-.1V23.2a18.411,18.411,0,0,0-5.8-12.8A18.165,18.165,0,0,0,31.3,5.5a18.411,18.411,0,0,0-12.8,5.8,18.165,18.165,0,0,0-4.9,13.1Z"
           data-name="Path 99"
           id="Path_99" />
      </g>
      <g
         data-name="Group 77"
         id="Group_77">
        <path
           fill="#333"
           d="M17.7,39.5a20.905,20.905,0,0,1-6.5-15h2.4a18.456,18.456,0,0,0,5.7,13.3Z"
           data-name="Path 100"
           id="Path_100" />
      </g>
      <g
         data-name="Group 78"
         id="Group_78">
        <path
           fill="#333"
           d="M46.1,39.5l-1.6-1.7a18.456,18.456,0,0,0,5.7-13.3h2.4A20.515,20.515,0,0,1,46.1,39.5Z"
           data-name="Path 101"
           id="Path_101" />
      </g>
      <g
         data-name="Group 79"
         id="Group_79">
        <path
           fill="#333"
           d="M36.2,60.6H33.8A6.859,6.859,0,0,0,32,57.8a6.859,6.859,0,0,0-1.8,2.8H27.8c0-2,2.6-4.6,3.4-5.4l.8-.8.8.8C33.6,56,36.2,58.6,36.2,60.6Z"
           data-name="Path 102"
           id="Path_102" />
      </g>
    </g>
    <g
       opacity="0.1"
       transform="translate(7349.255 -389.327)"
       data-name="Elementer"
       id="Elementer-2">
      <g
         data-name="Group 97"
         id="Group_97">
        <rect
           fill="#333"
           transform="translate(28.1 20.2)"
           height="15.5"
           width="2.4"
           data-name="Rectangle 75"
           id="Rectangle_75" />
      </g>
      <g
         data-name="Group 98"
         id="Group_98">
        <rect
           fill="#333"
           transform="translate(28.1 41.6)"
           height="6"
           width="2.4"
           data-name="Rectangle 76"
           id="Rectangle_76" />
      </g>
      <g
         data-name="Group 99"
         id="Group_99">
        <path
           fill="#333"
           d="M11.7,27.3A8.478,8.478,0,0,1,5.5,17.1a8.217,8.217,0,0,1,8-6.4A8.778,8.778,0,0,1,23.7,4.5a8.61,8.61,0,0,1,6.7,7.4l-2.4.2a6.171,6.171,0,0,0-4.8-5.4,6.37,6.37,0,0,0-7.5,4.9l-.3,1.5L14.3,13a5.92,5.92,0,0,0-6.5,4.6A6.185,6.185,0,0,0,12.3,25Z"
           data-name="Path 113"
           id="Path_113" />
      </g>
      <g
         data-name="Group 100"
         id="Group_100">
        <path
           fill="#333"
           d="M7.3,36.9a6.473,6.473,0,0,1-3.2-3.7,6.406,6.406,0,0,1,.3-4.9,6.329,6.329,0,0,1,7.2-3.4l-.5,2.3a4.224,4.224,0,0,0-4.6,2.2,3.749,3.749,0,0,0-.2,3.1,4.119,4.119,0,0,0,2.1,2.4Z"
           data-name="Path 114"
           id="Path_114" />
      </g>
      <g
         data-name="Group 101"
         id="Group_101">
        <rect
           fill="#333"
           transform="translate(28.1 11.5)"
           height="4.7"
           width="2.4"
           data-name="Rectangle 77"
           id="Rectangle_77" />
      </g>
      <g
         data-name="Group 102"
         id="Group_102">
        <path
           fill="#333"
           d="M46.9,27.3,46.3,25a6.066,6.066,0,0,0,4.4-7.3,5.92,5.92,0,0,0-6.5-4.6l-1.1.1-.3-1.6a6.455,6.455,0,0,0-2.7-4,6.669,6.669,0,0,0-4.8-.9,6.156,6.156,0,0,0-4.9,5.4L28.1,12a8.4,8.4,0,0,1,6.7-7.4,9.013,9.013,0,0,1,6.6,1.2A8.384,8.384,0,0,1,45,10.7a8.324,8.324,0,0,1,8,6.4A8.294,8.294,0,0,1,46.9,27.3Z"
           data-name="Path 115"
           id="Path_115" />
      </g>
      <g
         data-name="Group 103"
         id="Group_103">
        <path
           fill="#333"
           d="M35.3,53.6a7.719,7.719,0,0,1-1.5-.2,7.217,7.217,0,0,1-5.7-6.3l2.4-.2a4.672,4.672,0,0,0,3.8,4.2,5.1,5.1,0,0,0,6-3.9l.3-1.4,1.1.1a4.638,4.638,0,0,0,5.1-3.6,4.839,4.839,0,0,0-3.5-5.8l.6-2.3a7.158,7.158,0,0,1,5.2,8.7,7.036,7.036,0,0,1-6.7,5.5A7.5,7.5,0,0,1,35.3,53.6Z"
           data-name="Path 116"
           id="Path_116" />
      </g>
      <g
         data-name="Group 104"
         id="Group_104">
        <path
           fill="#333"
           d="M23.2,53.6a7.5,7.5,0,0,1-7.1-5.2,7.163,7.163,0,0,1-1.5-14.1l.6,2.3a4.761,4.761,0,0,0-3.5,5.8A4.612,4.612,0,0,0,16.8,46l1.1-.1.3,1.4a5.074,5.074,0,0,0,5.9,3.9h.1a4.894,4.894,0,0,0,3.9-4.3l2.4.3a7.233,7.233,0,0,1-5.6,6.3h-.1A9.151,9.151,0,0,1,23.2,53.6Z"
           data-name="Path 117"
           id="Path_117" />
      </g>
      <g
         data-name="Group 105"
         id="Group_105">
        <path
           fill="#333"
           d="M51.2,36.9l-1.1-2.1A4.123,4.123,0,0,0,52,29.3a4.1,4.1,0,0,0-4.6-2.2l-.5-2.3a6.329,6.329,0,0,1,7.2,3.4,5.987,5.987,0,0,1,.3,4.9A5.816,5.816,0,0,1,51.2,36.9Z"
           data-name="Path 118"
           id="Path_118" />
      </g>
    </g>
    <g
       opacity="0.1"
       transform="translate(6970.272 -400.1)"
       data-name="Elementer"
       id="Elementer-3">
      <g
         data-name="Group 111"
         id="Group_111">
        <path
           fill="#333"
           d="M16.6,83.2l-1.7-1.6,4.9-4.9V58.5l8.1,8.2-1.7,1.6-4.1-4.1V77.7Z"
           data-name="Path 123"
           id="Path_123" />
      </g>
      <g
         data-name="Group 112"
         id="Group_112">
        <path
           fill="#333"
           d="M20.8,56.2c-6.5,0-10.1-3.9-10.1-11,0-9.8,8.7-23.6,9.1-24.2l1-1.6,1,1.6c.4.6,9.1,14.4,9.1,24.2C30.9,52.3,27.3,56.2,20.8,56.2Zm0-32.3C18.5,27.9,13,38,13,45.2c0,5.8,2.5,8.6,7.7,8.6s7.7-2.8,7.7-8.6C28.5,38,23.1,27.9,20.8,23.9Z"
           data-name="Path 124"
           id="Path_124" />
      </g>
      <g
         data-name="Group 113"
         id="Group_113">
        <rect
           fill="#333"
           transform="translate(23.2 43.1)"
           height="2.4"
           width="5.9"
           data-name="Rectangle 79"
           id="Rectangle_79" />
      </g>
      <g
         data-name="Group 114"
         id="Group_114">
        <rect
           fill="#333"
           transform="translate(12.5 37.4)"
           height="2.4"
           width="5.9"
           data-name="Rectangle 80"
           id="Rectangle_80" />
      </g>
      <g
         data-name="Group 115"
         id="Group_115">
        <rect
           fill="#333"
           transform="translate(21.2 32.8)"
           height="2.4"
           width="5.9"
           data-name="Rectangle 81"
           id="Rectangle_81" />
      </g>
      <g
         data-name="Group 116"
         id="Group_116">
        <rect
           fill="#333"
           transform="translate(20.494 69.831) rotate(-45)"
           height="8.1"
           width="2.4"
           data-name="Rectangle 82"
           id="Rectangle_82" />
      </g>
      <g
         data-name="Group 117"
         id="Group_117">
        <rect
           fill="#333"
           transform="translate(14.839 72.639) rotate(-45)"
           height="2.4"
           width="8.1"
           data-name="Rectangle 83"
           id="Rectangle_83" />
      </g>
      <g
         data-name="Group 118"
         id="Group_118">
        <rect
           fill="#333"
           transform="translate(18.8 5.1)"
           height="5.3"
           width="2.4"
           data-name="Rectangle 84"
           id="Rectangle_84" />
      </g>
      <g
         data-name="Group 119"
         id="Group_119">
        <rect
           fill="#333"
           transform="matrix(0.619, -0.785, 0.785, 0.619, 28.348, 13.302)"
           height="2.4"
           width="5"
           data-name="Rectangle 85"
           id="Rectangle_85" />
      </g>
      <g
         data-name="Group 120"
         id="Group_120">
        <rect
           fill="#333"
           transform="translate(6.728 10.755) rotate(-37.328)"
           height="5"
           width="2.4"
           data-name="Rectangle 86"
           id="Rectangle_86" />
      </g>
    </g>
    <g
       opacity="0.1"
       transform="translate(7555.3 -395.8)"
       data-name="Elementer"
       id="Elementer-4">
      <g
         data-name="Group 408"
         id="Group_408">
        <path
           fill="#333"
           d="M20.9,44.7A14.2,14.2,0,1,1,35.1,30.5,14.19,14.19,0,0,1,20.9,44.7Zm0-26.1A11.9,11.9,0,1,0,32.8,30.4,11.78,11.78,0,0,0,20.9,18.6Z"
           data-name="Path 274"
           id="Path_274" />
      </g>
      <g
         data-name="Group 409"
         id="Group_409">
        <path
           fill="#333"
           d="M21.5,39.6V37.2a5.7,5.7,0,0,0,5.7-5.7h2.4A8.2,8.2,0,0,1,21.5,39.6Z"
           data-name="Path 275"
           id="Path_275" />
      </g>
      <g
         data-name="Group 410"
         id="Group_410">
        <rect
           fill="#333"
           transform="translate(19.7 4.8)"
           height="5.3"
           width="2.4"
           data-name="Rectangle 222"
           id="Rectangle_222" />
      </g>
      <g
         data-name="Group 411"
         id="Group_411">
        <rect
           fill="#333"
           transform="matrix(0.62, -0.785, 0.785, 0.62, 29.245, 13.014)"
           height="2.4"
           width="5"
           data-name="Rectangle 223"
           id="Rectangle_223" />
      </g>
      <g
         data-name="Group 412"
         id="Group_412">
        <rect
           fill="#333"
           transform="translate(7.706 10.408) rotate(-37.328)"
           height="5"
           width="2.4"
           data-name="Rectangle 224"
           id="Rectangle_224" />
      </g>
      <g
         data-name="Group 413"
         id="Group_413">
        <path
           fill="#333"
           d="M45.8,60.3,33.5,48.1l1.7-1.7L45.8,57l2-2.1L37.3,44.3l1.6-1.6L51.2,54.9Z"
           data-name="Path 276"
           id="Path_276" />
      </g>
      <g
         data-name="Group 414"
         id="Group_414">
        <rect
           fill="#333"
           transform="translate(30.082 40.817) rotate(-45)"
           height="7.3"
           width="2.4"
           data-name="Rectangle 225"
           id="Rectangle_225" />
      </g>
    </g>
    <g
       opacity="0.1"
       transform="translate(8058.7 -474.7)"
       data-name="Elementer"
       id="Elementer-5">
      <g
         data-name="Group 415"
         id="Group_415">
        <path
           fill="#333"
           d="M22.8,59.9V48.6h2.4v6.1l12.6-11h.4c9.1,0,16-7.4,16-17.3A17.349,17.349,0,0,0,37,9.1H25a17.25,17.25,0,1,0,0,34.5h0V46h0A19.65,19.65,0,1,1,25,6.7H37A19.632,19.632,0,0,1,56.6,26.3c0,11-7.7,19.4-18,19.6Z"
           data-name="Path 277"
           id="Path_277" />
      </g>
    </g>
    <g
       opacity="0.1"
       transform="translate(7463.7 -479.35)"
       data-name="Elementer"
       id="Elementer-6">
      <g
         data-name="Group 438"
         id="Group_438">
        <path
           fill="#333"
           d="M42.3,27.9a18.107,18.107,0,0,0-25.5,0l-1.7-1.7a20.461,20.461,0,0,1,28.8,0Z"
           data-name="Path 292"
           id="Path_292" />
      </g>
      <g
         data-name="Group 439"
         id="Group_439">
        <path
           fill="#333"
           d="M52.2,18.1A31.928,31.928,0,0,0,7,18.1L5.3,16.4a34.282,34.282,0,0,1,48.5,0Z"
           data-name="Path 293"
           id="Path_293" />
      </g>
      <g
         data-name="Group 440"
         id="Group_440">
        <path
           fill="#333"
           d="M29.6,47.6a6.9,6.9,0,0,1-4.9-11.8h0a6.93,6.93,0,0,1,9.8,9.8A7.144,7.144,0,0,1,29.6,47.6ZM26.3,37.4a4.6,4.6,0,1,0,6.5,0,4.587,4.587,0,0,0-6.5,0Z"
           data-name="Path 294"
           id="Path_294" />
      </g>
    </g>
    <g
       opacity="0.1"
       transform="translate(7156.623 -395.8)"
       data-name="Elementer"
       id="Elementer-7">
      <g
         data-name="Group 290"
         id="Group_290">
        <path
           fill="#333"
           d="M26.2,59.4l-1.4-1.9c2.1-1.6,4.2-3.3,5.7-4.7a71.078,71.078,0,0,0,9.6-9.4c2.1-2.6,3-4.9,2.8-7.4a8.965,8.965,0,0,0-2.8-6.2,7.476,7.476,0,0,0-2.9-1.6,7.894,7.894,0,0,0-6.2.5,11.784,11.784,0,0,0-2.2,1.7l-1.6-1.7a13.948,13.948,0,0,1,2.7-2.1A10.37,10.37,0,0,1,38,26a9.132,9.132,0,0,1,3.7,2.1,11.2,11.2,0,0,1,3.6,7.8c.2,3.1-.9,6-3.4,9.1A75.627,75.627,0,0,1,32,54.7C30.5,55.9,28.4,57.7,26.2,59.4Z"
           data-name="Path 204"
           id="Path_204" />
      </g>
      <g
         data-name="Group 291"
         id="Group_291">
        <rect
           fill="#333"
           transform="translate(24.2 5.8)"
           height="5.3"
           width="2.4"
           data-name="Rectangle 174"
           id="Rectangle_174" />
      </g>
      <g
         data-name="Group 292"
         id="Group_292">
        <rect
           fill="#333"
           transform="matrix(0.62, -0.785, 0.785, 0.62, 33.686, 14.013)"
           height="2.4"
           width="5"
           data-name="Rectangle 175"
           id="Rectangle_175" />
      </g>
      <g
         data-name="Group 293"
         id="Group_293">
        <rect
           fill="#333"
           transform="translate(12.144 11.543) rotate(-37.328)"
           height="5"
           width="2.4"
           data-name="Rectangle 176"
           id="Rectangle_176" />
      </g>
      <g
         data-name="Group 294"
         id="Group_294">
        <path
           fill="#333"
           d="M21.5,57c-.6-.5-1.4-1.2-2.1-1.8l-.8-.7a74.85,74.85,0,0,1-9.8-9.7c-2.5-3.1-3.6-5.9-3.4-9.1A11.013,11.013,0,0,1,9,27.9a9.132,9.132,0,0,1,3.7-2.1,10.158,10.158,0,0,1,8,.6,20.644,20.644,0,0,1,5.5,5.1L24.4,33a17.174,17.174,0,0,0-4.8-4.5,7.607,7.607,0,0,0-6.1-.4,10.244,10.244,0,0,0-2.9,1.6,8.965,8.965,0,0,0-2.8,6.2,10.7,10.7,0,0,0,2.8,7.5,84.331,84.331,0,0,0,9.5,9.4l.8.7c.7.6,1.5,1.3,2,1.7Z"
           data-name="Path 205"
           id="Path_205" />
      </g>
      <g
         data-name="Group 295"
         id="Group_295">
        <path
           fill="#333"
           d="M25.2,60.1l-1.5-1.9,1-.8c1.8-1.4,3.7-2.9,5.8-4.7a71.078,71.078,0,0,0,9.6-9.4c2.1-2.6,3-4.9,2.8-7.4l2.4-.1c.2,3.1-.9,6-3.4,9.1A75.627,75.627,0,0,1,32,54.6c-2.1,1.8-4,3.4-5.8,4.7Z"
           data-name="Path 206"
           id="Path_206" />
      </g>
    </g>
    <g
       opacity="0.1"
       transform="translate(6824.29 -388.053) rotate(45)"
       data-name="Elementer"
       id="Elementer-8">
      <g
         data-name="Group 296"
         id="Group_296">
        <path
           fill="#333"
           d="M29.2,59.8l-.5-2.3A13.919,13.919,0,0,0,39.4,43.9c0-8.8-11-18.6-13.9-21-3,2.5-13.9,12.2-13.9,21A13.919,13.919,0,0,0,22.3,57.5l-.5,2.3A16.248,16.248,0,0,1,9.2,43.9c0-11.3,14.9-23,15.6-23.5l.7-.6.7.6c.6.5,15.6,12.2,15.6,23.5A16.354,16.354,0,0,1,29.2,59.8Z"
           data-name="Path 207"
           id="Path_207" />
      </g>
      <g
         data-name="Group 297"
         id="Group_297">
        <rect
           fill="#333"
           transform="matrix(0.639, -0.769, 0.769, 0.639, 16.988, 46.779)"
           height="5.6"
           width="2.4"
           data-name="Rectangle 177"
           id="Rectangle_177" />
      </g>
      <g
         data-name="Group 298"
         id="Group_298">
        <rect
           fill="#333"
           transform="translate(28.087 48.104) rotate(-45.065)"
           height="2.4"
           width="6.1"
           data-name="Rectangle 178"
           id="Rectangle_178" />
      </g>
      <g
         data-name="Group 299"
         id="Group_299">
        <rect
           fill="#333"
           transform="translate(24.3 39.4)"
           height="28.4"
           width="2.4"
           data-name="Rectangle 179"
           id="Rectangle_179" />
      </g>
      <g
         data-name="Group 300"
         id="Group_300">
        <rect
           fill="#333"
           transform="matrix(0.612, -0.791, 0.791, 0.612, 19.592, 37.788)"
           height="6.5"
           width="2.4"
           data-name="Rectangle 180"
           id="Rectangle_180" />
      </g>
      <g
         data-name="Group 301"
         id="Group_301">
        <rect
           fill="#333"
           transform="matrix(0.618, -0.786, 0.786, 0.618, 24.577, 40.097)"
           height="2.4"
           width="8.4"
           data-name="Rectangle 181"
           id="Rectangle_181" />
      </g>
      <g
         data-name="Group 302"
         id="Group_302">
        <rect
           fill="#333"
           transform="translate(24.3 5.8)"
           height="5.3"
           width="2.4"
           data-name="Rectangle 182"
           id="Rectangle_182" />
      </g>
      <g
         data-name="Group 303"
         id="Group_303">
        <rect
           fill="#333"
           transform="matrix(0.62, -0.785, 0.785, 0.62, 33.702, 14.045)"
           height="2.4"
           width="5"
           data-name="Rectangle 183"
           id="Rectangle_183" />
      </g>
      <g
         data-name="Group 304"
         id="Group_304">
        <rect
           fill="#333"
           transform="translate(12.232 11.506) rotate(-37.328)"
           height="5"
           width="2.4"
           data-name="Rectangle 184"
           id="Rectangle_184" />
      </g>
    </g>
    <g
       opacity="0.1"
       transform="translate(7298.486 -495.66) rotate(45)"
       data-name="Elementer"
       id="Elementer-9">
      <g
         data-name="Group 305"
         id="Group_305">
        <rect
           fill="#333"
           transform="translate(23.1 4.4)"
           height="5.7"
           width="2.4"
           data-name="Rectangle 185"
           id="Rectangle_185" />
      </g>
      <g
         data-name="Group 306"
         id="Group_306">
        <rect
           fill="#333"
           transform="translate(33.215 13.24) rotate(-51.741)"
           height="2.4"
           width="5.4"
           data-name="Rectangle 186"
           id="Rectangle_186" />
      </g>
      <g
         data-name="Group 307"
         id="Group_307">
        <rect
           fill="#333"
           transform="translate(10.261 10.456) rotate(-37.344)"
           height="5.3"
           width="2.4"
           data-name="Rectangle 187"
           id="Rectangle_187" />
      </g>
      <g
         data-name="Group 308"
         id="Group_308">
        <rect
           fill="#333"
           transform="translate(23 45.4)"
           height="12.8"
           width="2.4"
           data-name="Rectangle 188"
           id="Rectangle_188" />
      </g>
      <g
         data-name="Group 309"
         id="Group_309">
        <path
           fill="#333"
           d="M21.5,43.8a3.864,3.864,0,0,1-2.7-1.1l-.3-.3c-1.3-1.3-1.4-5-1.4-6.1V35.1h1.2c1.1,0,4.7.1,6.1,1.4a4.209,4.209,0,0,1,1.4,2.8,4.064,4.064,0,0,1-1,3,4.232,4.232,0,0,1-2.9,1.4C21.6,43.8,21.6,43.8,21.5,43.8Zm-2.1-6.2a8.427,8.427,0,0,0,.7,3.2l.2.2a1.575,1.575,0,0,0,1.3.4,1.425,1.425,0,0,0,1.2-.6,1.575,1.575,0,0,0,.4-1.3,1.743,1.743,0,0,0-.6-1.2h0A7.936,7.936,0,0,0,19.4,37.6Z"
           data-name="Path 208"
           id="Path_208" />
      </g>
      <g
         data-name="Group 310"
         id="Group_310">
        <path
           fill="#333"
           d="M27.2,36a4,4,0,0,1-2.9-1.2,4.1,4.1,0,0,1,0-5.8c1.4-1.4,5-1.5,6.1-1.5h1.2v1.2c0,1.1-.1,4.7-1.5,6.1A3.847,3.847,0,0,1,27.2,36Zm2-6a8.427,8.427,0,0,0-3.2.7,1.768,1.768,0,1,0,2.5,2.5h0A8.427,8.427,0,0,0,29.2,30Z"
           data-name="Path 209"
           id="Path_209" />
      </g>
      <g
         data-name="Group 311"
         id="Group_311">
        <rect
           fill="#333"
           transform="translate(16.5 61.5)"
           height="2.4"
           width="15.3"
           data-name="Rectangle 189"
           id="Rectangle_189" />
      </g>
      <g
         data-name="Group 312"
         id="Group_312">
        <rect
           fill="#333"
           transform="translate(22 67.3)"
           height="2.4"
           width="4.2"
           data-name="Rectangle 190"
           id="Rectangle_190" />
      </g>
      <g
         data-name="Group 313"
         id="Group_313">
        <rect
           fill="#333"
           transform="translate(21.4 67.3)"
           height="2.4"
           width="5.4"
           data-name="Rectangle 191"
           id="Rectangle_191" />
      </g>
      <g
         data-name="Group 314"
         id="Group_314">
        <path
           fill="#333"
           d="M31.4,58.2H29v-1a17.554,17.554,0,0,1,5.4-12.6L36,46.3a14.978,14.978,0,0,0-4.7,10.9v1Z"
           data-name="Path 210"
           id="Path_210" />
      </g>
      <g
         data-name="Group 315"
         id="Group_315">
        <path
           fill="#333"
           d="M19.2,58.3H16.8v-1a15.28,15.28,0,0,0-4.6-10.9l1.6-1.7a17.727,17.727,0,0,1,5.4,12.6Z"
           data-name="Path 211"
           id="Path_211" />
      </g>
      <g
         data-name="Group 316"
         id="Group_316">
        <path
           fill="#333"
           d="M39.2,33.8a14.98,14.98,0,0,0-15-15h0a15.023,15.023,0,0,0-15,15H6.8A17.413,17.413,0,0,1,24.2,16.4h0A17.413,17.413,0,0,1,41.6,33.8Z"
           data-name="Path 212"
           id="Path_212" />
      </g>
      <g
         data-name="Group 317"
         id="Group_317">
        <path
           fill="#333"
           d="M12.2,46.4A17.727,17.727,0,0,1,6.8,33.8H9.2a15.28,15.28,0,0,0,4.6,10.9Z"
           data-name="Path 213"
           id="Path_213" />
      </g>
      <g
         data-name="Group 318"
         id="Group_318">
        <path
           fill="#333"
           d="M36.1,46.4l-1.6-1.7a14.884,14.884,0,0,0,4.6-10.9h2.4A17.727,17.727,0,0,1,36.1,46.4Z"
           data-name="Path 214"
           id="Path_214" />
      </g>
    </g>
    <g
       opacity="0.1"
       transform="translate(7054.469 -458.502) rotate(-45)"
       data-name="Elementer"
       id="Elementer-10">
      <g
         data-name="Group 319"
         id="Group_319">
        <rect
           fill="#333"
           transform="translate(16.2 51)"
           height="2.4"
           width="15.3"
           data-name="Rectangle 192"
           id="Rectangle_192" />
      </g>
      <g
         data-name="Group 320"
         id="Group_320">
        <rect
           fill="#333"
           transform="translate(21.7 56.8)"
           height="2.4"
           width="4.2"
           data-name="Rectangle 193"
           id="Rectangle_193" />
      </g>
      <g
         data-name="Group 321"
         id="Group_321">
        <rect
           fill="#333"
           transform="translate(21.1 56.8)"
           height="2.4"
           width="5.4"
           data-name="Rectangle 194"
           id="Rectangle_194" />
      </g>
      <g
         data-name="Group 322"
         id="Group_322">
        <path
           fill="#333"
           d="M31.2,47.7H28.8v-1a17.328,17.328,0,0,1,5.4-12.6l1.6,1.7a14.51,14.51,0,0,0-4.6,10.9Z"
           data-name="Path 215"
           id="Path_215" />
      </g>
      <g
         data-name="Group 323"
         id="Group_323">
        <path
           fill="#333"
           d="M18.9,47.7H16.5v-1a14.978,14.978,0,0,0-4.7-10.9l1.6-1.7a17.328,17.328,0,0,1,5.4,12.6v1Z"
           data-name="Path 216"
           id="Path_216" />
      </g>
      <g
         data-name="Group 324"
         id="Group_324">
        <path
           fill="#333"
           d="M41.2,23.3H38.8a15,15,0,0,0-30,0H6.5a17.35,17.35,0,1,1,34.7,0Z"
           data-name="Path 217"
           id="Path_217" />
      </g>
      <g
         data-name="Group 325"
         id="Group_325">
        <path
           fill="#333"
           d="M11.9,35.9A17.727,17.727,0,0,1,6.5,23.3H8.9a14.757,14.757,0,0,0,4.7,10.8Z"
           data-name="Path 218"
           id="Path_218" />
      </g>
      <g
         data-name="Group 326"
         id="Group_326">
        <path
           fill="#333"
           d="M35.8,35.9l-1.6-1.7a14.51,14.51,0,0,0,4.6-10.9h2.4A17.727,17.727,0,0,1,35.8,35.9Z"
           data-name="Path 219"
           id="Path_219" />
      </g>
      <g
         data-name="Group 327"
         id="Group_327">
        <rect
           fill="#333"
           transform="translate(22.6 17.3)"
           height="5.2"
           width="2.4"
           data-name="Rectangle 195"
           id="Rectangle_195" />
      </g>
      <g
         data-name="Group 328"
         id="Group_328">
        <rect
           fill="#333"
           transform="matrix(0.619, -0.786, 0.786, 0.619, 29.242, 24.288)"
           height="2.4"
           width="4.9"
           data-name="Rectangle 196"
           id="Rectangle_196" />
      </g>
      <g
         data-name="Group 329"
         id="Group_329">
        <rect
           fill="#333"
           transform="matrix(0.796, -0.606, 0.606, 0.796, 13.55, 21.792)"
           height="4.9"
           width="2.4"
           data-name="Rectangle 197"
           id="Rectangle_197" />
      </g>
    </g>
    <g
       opacity="0.1"
       transform="translate(6683.3 -475.7)"
       data-name="Elementer"
       id="Elementer-11">
      <g
         data-name="Group 194"
         id="Group_194">
        <path
           fill="#333"
           d="M47.3,17.5a2.1,2.1,0,1,1,2.1-2.1A1.994,1.994,0,0,1,47.3,17.5Zm0-2.4a.319.319,0,0,0-.3.3.251.251,0,0,0,.5,0C47.6,15.2,47.5,15.1,47.3,15.1Z"
           data-name="Path 160"
           id="Path_160" />
      </g>
      <g
         data-name="Group 195"
         id="Group_195">
        <path
           fill="#333"
           d="M16.2,22.7a10.838,10.838,0,0,1-5.5-1.5,10.961,10.961,0,0,1-4-4L8.8,16a8.381,8.381,0,0,0,3.1,3.1A8.645,8.645,0,0,0,23.7,16l2.1,1.2A11.236,11.236,0,0,1,16.2,22.7Z"
           data-name="Path 161"
           id="Path_161" />
      </g>
      <g
         data-name="Group 196"
         id="Group_196">
        <rect
           fill="#333"
           transform="translate(46.1 3.7)"
           height="4.6"
           width="2.4"
           data-name="Rectangle 125"
           id="Rectangle_125" />
      </g>
      <g
         data-name="Group 197"
         id="Group_197">
        <rect
           fill="#333"
           transform="translate(52.017 9.881) rotate(-51.741)"
           height="2.4"
           width="4.3"
           data-name="Rectangle 126"
           id="Rectangle_126" />
      </g>
      <g
         data-name="Group 198"
         id="Group_198">
        <rect
           fill="#333"
           transform="translate(38.113 7.844) rotate(-37.438)"
           height="4.3"
           width="2.4"
           data-name="Rectangle 127"
           id="Rectangle_127" />
      </g>
      <g
         data-name="Group 199"
         id="Group_199">
        <path
           fill="#333"
           d="M31.8,39.9a8.024,8.024,0,0,1-8-8h2.4a5.7,5.7,0,1,0,11.4,0H40A8.333,8.333,0,0,1,31.8,39.9Z"
           data-name="Path 162"
           id="Path_162" />
      </g>
      <g
         data-name="Group 200"
         id="Group_200">
        <rect
           fill="#333"
           transform="translate(30.6 48.7)"
           height="5.3"
           width="2.4"
           data-name="Rectangle 128"
           id="Rectangle_128" />
      </g>
      <g
         data-name="Group 201"
         id="Group_201">
        <rect
           fill="#333"
           transform="translate(18.534 48.306) rotate(-51.749)"
           height="2.4"
           width="5.1"
           data-name="Rectangle 129"
           id="Rectangle_129" />
      </g>
      <g
         data-name="Group 202"
         id="Group_202">
        <rect
           fill="#333"
           transform="translate(40.212 45.811) rotate(-37.349)"
           height="5"
           width="2.4"
           data-name="Rectangle 130"
           id="Rectangle_130" />
      </g>
      <g
         data-name="Group 203"
         id="Group_203">
        <path
           fill="#333"
           d="M47.4,22.8a9.667,9.667,0,0,1-2.9-.4,10.947,10.947,0,0,1-6.6-5.1L40,16.1a8.392,8.392,0,0,0,5.2,4,8.673,8.673,0,0,0,6.5-.8,9.787,9.787,0,0,0,3.2-3.2L57,17.3a11.506,11.506,0,0,1-4.1,4.1A12.136,12.136,0,0,1,47.4,22.8Z"
           data-name="Path 163"
           id="Path_163" />
      </g>
      <g
         data-name="Group 204"
         id="Group_204">
        <path
           fill="#333"
           d="M54.8,14.7a8.56,8.56,0,0,0-11.7-3.2,9.787,9.787,0,0,0-3.2,3.2l-2.1-1.2a11.506,11.506,0,0,1,4.1-4.1,10.974,10.974,0,0,1,15,4.1Z"
           data-name="Path 164"
           id="Path_164" />
      </g>
    </g>
    <g
       opacity="0.1"
       transform="translate(7678.2 -486.6)"
       data-name="Elementer"
       id="Elementer-12">
      <g
         data-name="Group 219"
         id="Group_219">
        <path
           fill="#333"
           d="M49.9,42.1l-2.3-.5,3.8-16.1H43.7V23.1H54.4Z"
           data-name="Path 171"
           id="Path_171" />
      </g>
      <g
         data-name="Group 220"
         id="Group_220">
        <path
           fill="#333"
           d="M47.9,51.5H12.1L4.8,20.6H40.5ZM14,49.1H44.9L38.7,22.9H7.8Z"
           data-name="Path 172"
           id="Path_172" />
      </g>
      <g
         data-name="Group 221"
         id="Group_221">
        <rect
           fill="#333"
           transform="translate(26.2 3.6)"
           height="5.3"
           width="2.4"
           data-name="Rectangle 139"
           id="Rectangle_139" />
      </g>
      <g
         data-name="Group 222"
         id="Group_222">
        <rect
           fill="#333"
           transform="matrix(0.619, -0.785, 0.785, 0.619, 35.724, 11.794)"
           height="2.4"
           width="5"
           data-name="Rectangle 140"
           id="Rectangle_140" />
      </g>
      <g
         data-name="Group 223"
         id="Group_223">
        <rect
           fill="#333"
           transform="translate(14.112 9.246) rotate(-37.328)"
           height="5"
           width="2.4"
           data-name="Rectangle 141"
           id="Rectangle_141" />
      </g>
    </g>
    <g
       opacity="0.1"
       transform="translate(6880.073 -483.047)"
       id="hand-peace">
      <g
         data-name="Elementer"
         id="Elementer-13">
        <g
           data-name="Group 224"
           id="Group_224">
          <rect
             fill="#333"
             transform="translate(6.069 47.757) rotate(-14.253)"
             height="10.3"
             width="2.4"
             data-name="Rectangle 142"
             id="Rectangle_142" />
        </g>
        <g
           data-name="Group 225"
           id="Group_225">
          <rect
             fill="#333"
             transform="translate(23.55 64.583) rotate(-12.902)"
             height="2.4"
             width="9.4"
             data-name="Rectangle 143"
             id="Rectangle_143" />
        </g>
        <g
           data-name="Group 226"
           id="Group_226">
          <path
             fill="#333"
             d="M39.8,49.4l-.6-2.3a6.324,6.324,0,0,0,4.6-7.7,6.681,6.681,0,0,0-2.9-3.9,6.272,6.272,0,0,0-4.8-.7l-.6-2.3a8.483,8.483,0,0,1,6.6,1,8.792,8.792,0,0,1,4,5.4,8.482,8.482,0,0,1-1,6.6A8.713,8.713,0,0,1,39.8,49.4Z"
             data-name="Path 173"
             id="Path_173" />
        </g>
        <g
           data-name="Group 227"
           id="Group_227">
          <path
             fill="#333"
             d="M21,67.3A12.908,12.908,0,0,1,8.6,57.7l2.3-.6a10.356,10.356,0,0,0,12.6,7.5l.6,2.3A11,11,0,0,1,21,67.3Z"
             data-name="Path 174"
             id="Path_174" />
        </g>
        <g
           data-name="Group 228"
           id="Group_228">
          <path
             fill="#333"
             d="M31.8,65.2l-.6-2.3a11.671,11.671,0,0,0,8.4-14.2l2.3-.6A14.021,14.021,0,0,1,31.8,65.2Z"
             data-name="Path 175"
             id="Path_175" />
        </g>
        <g
           data-name="Group 229"
           id="Group_229">
          <path
             fill="#333"
             d="M5,43.3a5.037,5.037,0,0,1,.7-3.6,4.414,4.414,0,0,1,3-2A4.763,4.763,0,0,1,14.2,41l-2,.6a2.625,2.625,0,0,0-3.1-1.8,2.454,2.454,0,0,0-1.7,1.1,2.815,2.815,0,0,0-.4,2Z"
             data-name="Path 176"
             id="Path_176" />
        </g>
        <g
           data-name="Group 230"
           id="Group_230">
          <path
             fill="#333"
             d="M11.3,38.9a5.5,5.5,0,0,1,.5-3.8,4.885,4.885,0,0,1,3.1-2.3A4.979,4.979,0,0,1,21,36.4l-2,.5a3.044,3.044,0,1,0-5.9,1.5Z"
             data-name="Path 177"
             id="Path_177" />
        </g>
        <g
           data-name="Group 231"
           id="Group_231">
          <path
             fill="#333"
             d="M39.6,11.6l-2.3-.4a2.475,2.475,0,1,0-4.9-.7L30,10.2a4.914,4.914,0,0,1,5.5-4.1A4.859,4.859,0,0,1,39.6,11.6Z"
             data-name="Path 178"
             id="Path_178" />
        </g>
        <g
           data-name="Group 232"
           id="Group_232">
          <rect
             fill="#333"
             transform="translate(26.788 32.036) rotate(-81.64)"
             height="2.4"
             width="22.5"
             data-name="Rectangle 144"
             id="Rectangle_144" />
        </g>
        <g
           data-name="Group 233"
           id="Group_233">
          <rect
             fill="#333"
             transform="translate(33.912 33.312) rotate(-81.449)"
             height="2.4"
             width="22.4"
             data-name="Rectangle 145"
             id="Rectangle_145" />
        </g>
        <g
           data-name="Group 234"
           id="Group_234">
          <rect
             fill="#333"
             transform="translate(33.665 15.271) rotate(-81.547)"
             height="3.8"
             width="2.4"
             data-name="Rectangle 146"
             id="Rectangle_146" />
        </g>
        <g
           data-name="Group 235"
           id="Group_235">
          <path
             fill="#333"
             d="M9.6,14.1A4.871,4.871,0,0,1,12,7.7a4.756,4.756,0,0,1,3.7-.1,5.1,5.1,0,0,1,2.7,2.5l-2.2,1a2.539,2.539,0,0,0-1.4-1.3,2.5,2.5,0,0,0-3.1,3.4Z"
             data-name="Path 179"
             id="Path_179" />
        </g>
        <g
           data-name="Group 236"
           id="Group_236">
          <rect
             fill="#333"
             transform="translate(9.513 13.901) rotate(-24.671)"
             height="24"
             width="2.4"
             data-name="Rectangle 147"
             id="Rectangle_147" />
        </g>
        <g
           data-name="Group 237"
           id="Group_237">
          <rect
             fill="#333"
             transform="translate(16.153 11.034) rotate(-24.161)"
             height="23.7"
             width="2.4"
             data-name="Rectangle 148"
             id="Rectangle_148" />
        </g>
        <g
           data-name="Group 238"
           id="Group_238">
          <rect
             fill="#333"
             transform="translate(14.374 14.287) rotate(-24.148)"
             height="2.4"
             width="3.8"
             data-name="Rectangle 149"
             id="Rectangle_149" />
        </g>
      </g>
      <g
         data-name="Group 243"
         id="Group_243">
        <g
           data-name="Group 239"
           id="Group_239">
          <path
             fill="#333"
             d="M28.5,44a4.881,4.881,0,0,1-.6,6.8,4.494,4.494,0,0,1-3.5,1.1,5.061,5.061,0,0,1-3.3-1.7l1.8-1.6a3.152,3.152,0,0,0,1.7.9,3,3,0,0,0,1.8-.6,2.511,2.511,0,0,0,.3-3.5Z"
             data-name="Path 180"
             id="Path_180" />
        </g>
        <g
           data-name="Group 240"
           id="Group_240">
          <path
             fill="#333"
             d="M28.7,44.2l-1.9,1.6-8.1-9.4,1.8-1.6Z"
             data-name="Path 181"
             id="Path_181" />
        </g>
        <g
           data-name="Group 241"
           id="Group_241">
          <rect
             fill="#333"
             transform="matrix(0.767, -0.642, 0.642, 0.767, 13.383, 41.004)"
             height="12.2"
             width="2.4"
             data-name="Rectangle 150"
             id="Rectangle_150" />
        </g>
        <g
           data-name="Group 242"
           id="Group_242">
          <rect
             fill="#333"
             transform="translate(19.412 45.819) rotate(-39.929)"
             height="2.4"
             width="3.8"
             data-name="Rectangle 151"
             id="Rectangle_151" />
        </g>
      </g>
      <g
         data-name="Group 248"
         id="Group_248">
        <g
           data-name="Group 244"
           id="Group_244">
          <path
             fill="#333"
             d="M18.5,45.2a4.569,4.569,0,0,1-.5,6.4,4.093,4.093,0,0,1-3.3,1A4.921,4.921,0,0,1,11.6,51l1.7-1.5a2.088,2.088,0,0,0,1.6.8,2.716,2.716,0,0,0,1.7-.6,2.359,2.359,0,0,0,.2-3.3Z"
             data-name="Path 182"
             id="Path_182" />
        </g>
        <g
           data-name="Group 245"
           id="Group_245">
          <path
             fill="#333"
             d="M18.6,45.4l-1.7,1.4-5-5.8,1.7-1.5Z"
             data-name="Path 183"
             id="Path_183" />
        </g>
        <g
           data-name="Group 246"
           id="Group_246">
          <path
             fill="#333"
             d="M13.3,49.7l-1.7,1.4L6.9,45.4l1.7-1.5Z"
             data-name="Path 184"
             id="Path_184" />
        </g>
        <g
           data-name="Group 247"
           id="Group_247">
          <rect
             fill="#333"
             transform="translate(9.893 46.808) rotate(-39.929)"
             height="2.3"
             width="3.6"
             data-name="Rectangle 152"
             id="Rectangle_152" />
        </g>
      </g>
      <g
         data-name="Group 253"
         id="Group_253">
        <g
           data-name="Group 249"
           id="Group_249">
          <path
             fill="#333"
             d="M31.7,45.3a4.89,4.89,0,0,1-6.5-2,4.794,4.794,0,0,1-.3-3.7,4.986,4.986,0,0,1,2.3-2.8l1.1,2.1a2.235,2.235,0,0,0-1.2,1.5,2.539,2.539,0,0,0,.2,1.9,2.475,2.475,0,0,0,3.4,1Z"
             data-name="Path 185"
             id="Path_185" />
        </g>
        <g
           data-name="Group 250"
           id="Group_250">
          <path
             fill="#333"
             d="M31.5,45.4l-1.2-2.1,8.1-4.5,1.2,2.1Z"
             data-name="Path 186"
             id="Path_186" />
        </g>
        <g
           data-name="Group 251"
           id="Group_251">
          <path
             fill="#333"
             d="M28.3,38.9l-1.2-2.1,8-4.2,1.1,2.1Z"
             data-name="Path 187"
             id="Path_187" />
        </g>
        <g
           data-name="Group 252"
           id="Group_252">
          <rect
             fill="#333"
             transform="matrix(0.887, -0.462, 0.462, 0.887, 29.838, 37.07)"
             height="3.8"
             width="2.4"
             data-name="Rectangle 153"
             id="Rectangle_153" />
        </g>
      </g>
    </g>
    <g
       opacity="0.1"
       transform="translate(7778.9 -385.696)"
       data-name="Elementer"
       id="Elementer-14">
      <g
         data-name="Group 333"
         id="Group_333">
        <path
           fill="#333"
           d="M23,26.8a5.2,5.2,0,1,1,5.2-5.2A5.164,5.164,0,0,1,23,26.8Zm0-8a2.9,2.9,0,1,0,2.9,2.9A2.9,2.9,0,0,0,23,18.8Z"
           data-name="Path 222"
           id="Path_222" />
      </g>
      <g
         data-name="Group 334"
         id="Group_334">
        <path
           fill="#333"
           d="M19,48.5C12.2,42.3,4.1,33,4.1,24v-.9a18.905,18.905,0,0,1,37.8.9H39.5a16.5,16.5,0,1,0-33-.8V24c0,8.6,8.8,18,14.1,22.8Z"
           data-name="Path 223"
           id="Path_223" />
      </g>
      <g
         data-name="Group 335"
         id="Group_335">
        <path
           fill="#333"
           d="M22.5,52.2,21,50.4C24.1,47.9,39.6,34.9,39.6,24A16.516,16.516,0,0,0,23.1,7.5V5.1A18.949,18.949,0,0,1,42,24C41.9,35.7,27,48.6,22.5,52.2Z"
           data-name="Path 224"
           id="Path_224" />
      </g>
    </g>
    <g
       transform="translate(6407.6 -451.3)"
       data-name="Elementer"
       id="Elementer-15">
      <g
         data-name="Group 336"
         id="Group_336">
        <path
           fill="#333"
           d="M16.1,41.4V39a5.816,5.816,0,0,0,4.3-1.8,6.224,6.224,0,0,0,1.8-4.3h2.4A8.623,8.623,0,0,1,16.1,41.4Z"
           data-name="Path 225"
           id="Path_225" />
      </g>
      <g
         data-name="Group 337"
         id="Group_337">
        <path
           fill="#333"
           d="M6.4,33V14.8L14.5,18l-.9,2.2L8.7,18.3V29.5l4.9-2,.9,2.2Z"
           data-name="Path 226"
           id="Path_226" />
      </g>
      <g
         data-name="Group 338"
         id="Group_338">
        <path
           fill="#333"
           d="M42.4,42.9,16.7,30.5V17.7L42.4,5.3ZM19,29,40,39.2V9.1L19,19.2Z"
           data-name="Path 227"
           id="Path_227" />
      </g>
      <g
         data-name="Group 339"
         id="Group_339">
        <rect
           fill="#333"
           transform="translate(58.2 22.9)"
           height="2.4"
           width="6.1"
           data-name="Rectangle 199"
           id="Rectangle_199" />
      </g>
      <g
         data-name="Group 340"
         id="Group_340">
        <rect
           fill="#333"
           transform="matrix(0.62, -0.785, 0.785, 0.62, 53.305, 35.654)"
           height="5.8"
           width="2.4"
           data-name="Rectangle 200"
           id="Rectangle_200" />
      </g>
      <g
         data-name="Group 341"
         id="Group_341">
        <rect
           fill="#333"
           transform="translate(53.364 12.587) rotate(-37.279)"
           height="2.4"
           width="5.7"
           data-name="Rectangle 201"
           id="Rectangle_201" />
      </g>
    </g>
    <g
       transform="translate(6420.8 -388.5)"
       data-name="Elementer"
       id="Elementer-16">
      <g
         data-name="Group 379"
         id="Group_379">
        <rect
           fill="#f0f"
           transform="translate(5.2 13.1)"
           height="2.4"
           width="20.9"
           data-name="Rectangle 210"
           id="Rectangle_210" />
      </g>
      <g
         data-name="Group 380"
         id="Group_380">
        <path
           fill="#f0f"
           d="M18.3,4.5,16.6,6.3l8.6,8-8.6,7.9L18.3,24l10.4-9.7Z"
           data-name="Path 257"
           id="Path_257" />
      </g>
    </g>
  </g>
</svg>
